<?xml version="1.0" encoding="utf-8"?>
<!-- Generator: Adobe Illustrator 25.2.1, SVG Export Plug-In . SVG Version: 6.00 Build 0)  -->
<svg version="1.1" id="Layer_1" xmlns="http://www.w3.org/2000/svg" xmlns:xlink="http://www.w3.org/1999/xlink" x="0px" y="0px"
	 viewBox="0 0 64 64" style="enable-background:new 0 0 64 64;" xml:space="preserve">
<style type="text/css">
	.st0{fill:#17A3DD;}
</style>
<path class="st0" d="M33.63,0.78C34.69,0.91,35.76,1,36.81,1.2c12.02,2.19,20.21,9.02,24.65,20.37c0.04,0.12,0.06,0.26,0.12,0.51
	c-3.72-1.31-7.4-2.34-11.21-2.99c-3.79-0.65-7.61-0.96-11.47-0.86c0,1.23,0,2.42,0,3.7c1.1,0,2.16-0.03,3.21,0
	c6.97,0.17,13.66,1.66,20.18,4.07c0.22,0.07,0.45,0.39,0.48,0.62c1.57,9.71-0.75,18.41-7.17,25.87c-5.01,5.82-11.41,9.22-19,10.41
	c-0.67,0.1-1.34,0.22-2,0.32c-1.7,0-3.41,0-5.11,0c-0.16-0.04-0.32-0.12-0.49-0.15c-0.99-0.15-1.97-0.29-3.15-0.46
	c6.05-5.17,11.05-10.95,14.78-17.86c-1.1-0.61-2.15-1.16-3.21-1.74c-0.09,0.16-0.16,0.25-0.22,0.35c-3.8,6.9-8.9,12.7-14.91,17.76
	c-0.35,0.3-0.64,0.33-1.05,0.16C9.37,56.38,2.55,47.61,1.01,34.81c-0.07-0.62-0.16-1.23-0.25-1.86c0-0.64,0-1.29,0-1.93
	c0.04-0.15,0.13-0.28,0.13-0.42C1.18,24.52,3.07,18.98,6.57,14c0.62-0.89,1.32-1.73,2.11-2.73c0.73,4.01,1.71,7.72,3.05,11.34
	s2.96,7.08,5.04,10.4c1.09-0.67,2.09-1.29,3.11-1.92c-0.09-0.16-0.13-0.23-0.17-0.3c-4.07-6.75-6.58-14.08-7.94-21.82
	c-0.1-0.54,0.1-0.77,0.44-1.03c4.12-3.37,8.77-5.59,14.01-6.59c1.23-0.23,2.47-0.38,3.72-0.57C31.13,0.78,32.38,0.78,33.63,0.78z"/>
</svg>
