<svg width="33" height="32" viewBox="0 0 33 32" fill="none" xmlns="http://www.w3.org/2000/svg">
<path d="M32.9097 18.6599C32.9097 25.7799 27.2897 31.6099 20.2597 31.9599C23.6697 30.1699 26.3097 27.1099 27.5497 23.4099C29.9797 20.7399 31.4597 17.1999 31.4597 13.3099C31.4597 13.0699 31.4597 12.8299 31.4397 12.5899C32.3797 14.4099 32.9097 16.4799 32.9097 18.6599Z" fill="#00FFDA"/>
<path d="M28.2997 19.3899C28.3097 19.1499 28.3197 18.9099 28.3197 18.6599C28.3197 12.8899 25.0497 7.86988 20.2597 5.35986C23.7597 5.52986 26.9097 7.05988 29.1897 9.43988C29.5597 10.6699 29.7597 11.9599 29.7597 13.3099C29.7597 15.4999 29.2297 17.5599 28.2897 19.3799L28.2997 19.3899Z" fill="#E400EA"/>
<path d="M27.5296 5.92C25.2296 4.48 22.5096 3.65 19.5996 3.65C18.5196 3.65 17.4696 3.76 16.4596 3.98C15.4496 3.76 14.3896 3.65 13.3196 3.65C10.4096 3.65 7.68965 4.48 5.38965 5.92C7.77965 2.35 11.8496 0 16.4596 0C21.0696 0 25.1396 2.35 27.5296 5.92Z" fill="#0080FF"/>
<path d="M24.3802 26.0498C22.5502 28.7798 19.7402 30.7998 16.4602 31.5998C13.1802 30.7998 10.3602 28.7798 8.53027 26.0498C10.8302 27.4898 13.5502 28.3198 16.4602 28.3198C19.3702 28.3198 22.0802 27.4898 24.3802 26.0498Z" fill="#0080FF"/>
<path d="M16.46 5.72998C10.63 7.13998 6.29004 12.4 6.29004 18.66C6.29004 20.01 6.49004 21.31 6.86004 22.53C9.29004 25.05 12.69 26.62 16.45 26.62C20.21 26.62 23.62 25.05 26.04 22.53C26.41 21.31 26.61 20 26.61 18.66C26.61 12.4 22.27 7.13998 16.44 5.72998H16.46ZM20.35 21.96C19.23 21.96 18.22 21.48 17.51 20.72C18.28 22.26 19.44 23.56 20.85 24.51C19.53 23.86 18.04 23.49 16.46 23.49C14.88 23.49 13.38 23.86 12.06 24.52C13.48 23.57 14.63 22.26 15.41 20.73C14.7 21.49 13.69 21.96 12.57 21.96C10.42 21.96 8.68004 20.22 8.68004 18.06C8.68004 15.9 10.42 14.17 12.57 14.17C13.2 14.17 13.79 14.32 14.32 14.59C13.27 13.9 12.57 12.7 12.57 11.34C12.57 9.18998 14.31 7.44998 16.46 7.44998C18.61 7.44998 20.35 9.18998 20.35 11.34C20.35 12.7 19.66 13.89 18.61 14.58C19.13 14.32 19.72 14.17 20.35 14.17C22.5 14.17 24.24 15.91 24.24 18.06C24.24 20.21 22.5 21.96 20.35 21.96Z" fill="black"/>
<path d="M4.58965 18.6601C4.58965 18.9001 4.58965 19.1501 4.60965 19.3901C3.66965 17.5701 3.13965 15.5001 3.13965 13.3201C3.13965 11.9801 3.33965 10.6801 3.70965 9.45008C5.98965 7.07008 9.13965 5.54012 12.6396 5.37012C7.84965 7.88008 4.57965 12.9001 4.57965 18.6701L4.58965 18.6601Z" fill="#00FFDA"/>
<path d="M12.65 31.9599C5.61 31.6099 0 25.7799 0 18.6599C0 16.4699 0.53 14.4099 1.47 12.5899C1.46 12.8299 1.45 13.0699 1.45 13.3099C1.45 17.1899 2.93 20.7399 5.36 23.4099C6.6 27.1099 9.24 30.1699 12.65 31.9599Z" fill="#E400EA"/>
</svg>
