<?xml version="1.0" encoding="utf-8"?>
<!-- Generator: Adobe Illustrator 25.2.1, SVG Export Plug-In . SVG Version: 6.00 Build 0)  -->
<svg version="1.1" id="Layer_1" xmlns="http://www.w3.org/2000/svg" xmlns:xlink="http://www.w3.org/1999/xlink" x="0px" y="0px"
	 viewBox="0 0 64 64" style="enable-background:new 0 0 64 64;" xml:space="preserve">
<style type="text/css">
	.st0{fill:#E7436F;}
</style>
<path class="st0" d="M24.32,22.66c-2.55,0-4.79,0-7.17,0c0-3.29,0-6.32,0-9.72c2.32,0,4.62,0,7.17,0c0-3.66,0.09-6.97-0.03-10.26
	c-0.06-1.7,0.48-2.27,2.21-2.24c3.63,0.11,7.28,0.03,11.16,0.03c0,4.14,0,8.08,0,12.27c2.86,0,5.5,0,8.33,0c0,3.37,0,6.49,0,9.86
	c-2.64,0-5.27,0-8.22,0c0,1.59,0,2.95,0,4.31c0,6.66,0,13.29,0,19.95c0,5.02,1.53,6.38,6.52,5.89c0.71-0.06,1.42-0.11,2.52-0.23
	c0,3.12,0.09,6.09-0.09,9.04c-0.03,0.51-0.96,1.39-1.53,1.45c-3.54,0.26-7.14,0.82-10.6,0.37c-5.64-0.71-9.21-4.48-9.83-10.17
	c-0.51-4.65-0.4-9.38-0.45-14.08C24.27,33.77,24.32,28.42,24.32,22.66z"/>
</svg>
