<?xml version="1.0" encoding="UTF-8" standalone="no"?>
<svg width="29" height="29" viewBox="0 0 29 29" fill="none" xmlns="http://www.w3.org/2000/svg">
    <path d="M9.02284 19.0942V11.3612H7.23584V9.37915H11.4918V19.0942H9.02284Z" fill="white"/>
    <path d="M20.7639 11.8921C20.763 12.3075 20.6485 12.7148 20.4327 13.0698C20.217 13.4248 19.9082 13.714 19.5399 13.9061C20.0436 14.0926 20.4788 14.4274 20.7882 14.8665C21.0977 15.3055 21.2666 15.828 21.2729 16.3651C21.2729 18.1091 19.7239 19.2241 17.2979 19.2241C14.8719 19.2241 13.3229 18.1301 13.3229 16.4061C13.3399 15.8529 13.5252 15.318 13.8542 14.873C14.1831 14.4279 14.64 14.0937 15.1639 13.9151C14.7742 13.7208 14.444 13.4252 14.2077 13.0595C13.9714 12.6937 13.8378 12.2712 13.8209 11.8361C13.8209 10.2871 15.1749 9.30211 17.2869 9.30211C19.4209 9.28011 20.7639 10.3021 20.7639 11.8911V11.8921ZM15.6519 16.1481C15.6519 16.9711 16.2369 17.4261 17.2979 17.4261C18.3589 17.4261 18.9659 16.9821 18.9659 16.1481C18.9659 15.3481 18.3659 14.8921 17.2979 14.8921C16.2299 14.8921 15.6519 15.3471 15.6519 16.1481ZM15.9009 12.0321C15.9009 12.7251 16.4009 13.1151 17.3009 13.1151C18.2009 13.1151 18.7009 12.7251 18.7009 12.0321C18.7009 11.3061 18.2009 10.9061 17.3009 10.9061C16.4009 10.9061 15.9009 11.3061 15.9009 12.0321Z" fill="white"/>
    <path d="M25.3879 10.4732C26.2354 12.9823 26.2096 15.7044 25.3145 18.197C24.4195 20.6897 22.7078 22.8064 20.4577 24.2033C18.2076 25.6001 15.5512 26.1951 12.9202 25.8914C10.2892 25.5877 7.83822 24.4033 5.96547 22.5306C4.09273 20.6578 2.90829 18.2068 2.60462 15.5758C2.30095 12.9448 2.89589 10.2885 4.29276 8.03833C5.68964 5.7882 7.80636 4.07655 10.299 3.1815C12.7916 2.28645 15.5137 2.2606 18.0229 3.10815V0.509154C14.991 -0.323869 11.7688 -0.130621 8.85821 1.05879C5.94765 2.24819 3.51227 4.36695 1.93154 7.08492C0.350811 9.80288 -0.286475 12.9674 0.118983 16.0853C0.524442 19.2033 1.94987 22.0996 4.17316 24.3229C6.39645 26.5462 9.29272 27.9716 12.4107 28.377C15.5286 28.7825 18.6931 28.1452 21.4111 26.5645C24.1291 24.9838 26.2478 22.5484 27.4372 19.6378C28.6266 16.7273 28.8199 13.505 27.9869 10.4732H25.3879Z" fill="white"/>
    <path d="M24.6729 3.82312V1.09412H22.7129V3.82312H19.9939V5.78312H22.7119V8.51212H24.6719V5.78412H27.4009V3.82412L24.6729 3.82312Z" fill="white"/>
</svg>
