<?xml version="1.0" encoding="utf-8"?>
<!-- Generator: Adobe Illustrator 25.2.1, SVG Export Plug-In . SVG Version: 6.00 Build 0)  -->
<svg version="1.1" id="Layer_1" xmlns="http://www.w3.org/2000/svg" xmlns:xlink="http://www.w3.org/1999/xlink" x="0px" y="0px"
	 viewBox="0 0 64 64" style="enable-background:new 0 0 64 64;" xml:space="preserve">
<style type="text/css">
	.st0{fill:#018D47;}
	.st1{fill:#9A999B;}
</style>
<path class="st0" d="M48.85,6.39c-3.07,4.17-6.07,8.26-9.16,12.46c-0.51,0.03-1.13,0.06-1.78,0.1c-1.98,2.72-3.96,5.43-6.1,8.35
	c-1.13-1.51-2.13-2.86-3.12-4.19c-0.86-1.16-1.66-2.37-2.6-3.46c-0.32-0.38-0.95-0.68-1.45-0.7c-1.79-0.08-3.59-0.03-5.62-0.03
	c0.15,0.52,0.16,0.96,0.37,1.25c2.84,4.06,5.69,8.1,8.65,12.27c-0.6,0.88-1.22,1.82-1.88,2.72c-2.15,2.94-4.35,5.84-6.43,8.81
	c-0.31,0.45-0.13,1.25,0.09,1.91c-2.38,3.45-4.76,6.89-7.14,10.34C-0.94,45.84-3.13,27.18,6.7,14.15
	C18.65-1.69,37.92-1.41,48.85,6.39z M17.4,43.14c0.05-0.42,0.1-0.66,0.1-0.91c0.01-5.9,0.01-11.8-0.01-17.7
	c0-0.57-0.14-1.13-0.23-1.7c-0.28-1.75-1.41-2.86-3.04-3.01c-2.33-0.21-4.69-0.05-7.02-0.05c0,0.82,0,1.49,0,2.17
	c0.29,0.04,0.48,0.07,0.66,0.08c2.72,0.19,3.06,0.54,3.06,3.23c0,5.39,0,10.77,0,16.16c0,0.55,0,1.11,0,1.73
	C13.15,43.14,15.19,43.14,17.4,43.14z"/>
<path class="st1" d="M44.36,18.66c2.49-3.39,4.95-6.75,7.42-10.11C63.31,17.51,67,33.92,59.36,47.06
	C49.82,63.46,30.01,67.45,16,58.54c2.68-4.45,5.81-8.6,8.72-12.98c0.54,0,1.12,0,1.71,0c1.95-2.68,3.89-5.33,5.98-8.22
	c2.12,2.74,4.17,5.39,6.26,8.1c2.12,0,4.29,0,6.43,0c0.66-1.01-0.33-1.51-0.68-2.02c-2.6-3.81-5.31-7.54-8.03-11.38
	c0.29-0.49,0.55-0.98,0.88-1.44c2.37-3.28,4.72-6.57,7.14-9.8C45,20.02,45.19,19.42,44.36,18.66z M45.69,29.72
	c1.42-0.98,2.4-1.66,3.38-2.36c1.27-0.89,2.6-1.73,2.12-3.66c-0.05-0.21,0.12-0.49,0.23-0.71c0.45-0.93,1.31-0.6,2.03-0.63
	c0.66-0.02,1.08,0.35,1.15,1.04c0.22,2.34,0.37,4.65-2.01,6.15c-0.22,0.13-0.39,0.34-0.59,0.49c-1.54,1.23-3.16,2.39-4.62,3.73
	c-0.72,0.66-1.5,1.63-1.6,2.53c-0.25,2.26-0.11,4.56-0.07,6.78c4.92,0,9.58,0,14.24,0c0-1.15,0-2.14,0-3.36c-2.83,0-5.55,0-8.24,0
	c-0.38-2.93-0.26-3.35,1.7-5.1c0.96-0.84,2.02-1.55,2.98-2.39c1.84-1.6,3.58-3.2,3.94-5.87c0.47-3.51-1.29-6.3-4.59-6.7
	c-1.75-0.22-3.51-0.4-5.31-0.05c-2.3,0.44-4.58,2.37-4.72,4.41C45.6,25.76,45.69,27.49,45.69,29.72z"/>
</svg>
