<svg width="30" height="30" viewBox="0 0 30 30" fill="none" xmlns="http://www.w3.org/2000/svg">
<path d="M12.87 7H8.96589C7.88191 7 7 7.88191 7 8.96589V12.87C7 13.954 7.88191 14.8359 8.96589 14.8359H12.87C13.954 14.8359 14.8359 13.954 14.8359 12.87V8.96589C14.8359 7.88191 13.954 7 12.87 7ZM13.5078 12.87C13.5078 13.2217 13.2217 13.5078 12.87 13.5078H8.96589C8.61424 13.5078 8.32812 13.2217 8.32812 12.87V8.96589C8.32812 8.61424 8.61424 8.32812 8.96589 8.32812H12.87C13.2217 8.32812 13.5078 8.61424 13.5078 8.96589V12.87Z" fill="#BD249F"/>
<path d="M22.0078 7H18.1562C17.0578 7 16.1641 7.8937 16.1641 8.99219V12.8438C16.1641 13.9422 17.0578 14.8359 18.1562 14.8359H22.0078C23.1063 14.8359 24 13.9422 24 12.8438V8.99219C24 7.8937 23.1063 7 22.0078 7ZM22.6719 12.8438C22.6719 13.2099 22.374 13.5078 22.0078 13.5078H18.1562C17.7901 13.5078 17.4922 13.2099 17.4922 12.8438V8.99219C17.4922 8.62602 17.7901 8.32812 18.1562 8.32812H22.0078C22.374 8.32812 22.6719 8.62602 22.6719 8.99219V12.8438Z" fill="#BD249F"/>
<path d="M12.87 16.1641H8.96589C7.88191 16.1641 7 17.046 7 18.13V22.0341C7 23.1181 7.88191 24 8.96589 24H12.87C13.954 24 14.8359 23.1181 14.8359 22.0341V18.13C14.8359 17.046 13.954 16.1641 12.87 16.1641ZM13.5078 22.0341C13.5078 22.3858 13.2217 22.6719 12.87 22.6719H8.96589C8.61424 22.6719 8.32812 22.3858 8.32812 22.0341V18.13C8.32812 17.7783 8.61424 17.4922 8.96589 17.4922H12.87C13.2217 17.4922 13.5078 17.7783 13.5078 18.13V22.0341Z" fill="#BD249F"/>
<path d="M22.0078 16.1641H18.1562C17.0578 16.1641 16.1641 17.0578 16.1641 18.1562V22.0078C16.1641 23.1063 17.0578 24 18.1562 24H22.0078C23.1063 24 24 23.1063 24 22.0078V18.1562C24 17.0578 23.1063 16.1641 22.0078 16.1641ZM22.6719 22.0078C22.6719 22.374 22.374 22.6719 22.0078 22.6719H18.1562C17.7901 22.6719 17.4922 22.374 17.4922 22.0078V18.1562C17.4922 17.7901 17.7901 17.4922 18.1562 17.4922H22.0078C22.374 17.4922 22.6719 17.7901 22.6719 18.1562V22.0078Z" fill="#BD249F"/>
</svg>
