<svg viewBox="0 0 64 64" xmlns="http://www.w3.org/2000/svg" height="20"><path d="M0 45.2V28.8c.5-1.4 1.6-1.8 3-1.7h2.5v-.8c0-3 .1-5.9 0-8.9 0-1.5 1.1-2.8 2.8-2.8 6.9.1 13.8 0 20.6 0h.8V.5h4.6v14.1h21.6c1.6 0 2.6 1 2.6 2.6V27h3c1.7 0 2.5.9 2.5 2.6v14.5c0 1.5-.8 2.8-2.7 2.7-.9-.1-1.9 0-2.8 0v13.8c0 1.7-1 2.7-2.7 2.7H8.1c-1.6 0-2.6-1-2.6-2.7V46.8c-.9 0-1.7-.1-2.6 0-1.4.2-2.4-.3-2.9-1.6zm49-12.6c0-3.7-3-6.8-6.6-6.8-3.7 0-6.8 3-6.8 6.6 0 3.7 3 6.8 6.7 6.8 3.7.1 6.7-2.9 6.7-6.6zM21.6 26c-3.7 0-6.6 3-6.6 6.6 0 3.6 3 6.7 6.6 6.7 3.6 0 6.6-3 6.7-6.6 0-3.7-3.1-6.7-6.7-6.7zM42 48H21.9v4.4H42V48z" fill="#210a4c"></path></svg>