<svg viewBox="0 0 36 36" xmlns="http://www.w3.org/2000/svg" height="36"><circle cx="18" cy="18" r="18" fill="#C625AC" fill-opacity=".24"></circle><g fill="#FFC9F6"><path d="M23.687 16.714c.019-2.256-1.902-4.324-4.283-4.61a3.386 3.386 0 01-.154-.023 2.23 2.23 0 00-.362-.04c-.488 0-.619.343-.653.548-.034.199-.002.365.094.496.162.22.446.259.675.29.067.01.13.018.183.03 2.139.478 2.859 1.23 3.21 3.35.01.052.013.116.018.184.015.253.047.78.614.78a1 1 0 00.15-.012c.529-.08.512-.562.504-.794-.002-.065-.004-.127.001-.168a.232.232 0 00.003-.03z"></path><path d="M18.75 11.276c.062.005.122.01.172.017 3.513.54 5.128 2.204 5.576 5.744.008.06.009.134.01.212.004.276.014.852.632.864h.019a.608.608 0 00.458-.174c.192-.201.179-.5.168-.74a3.36 3.36 0 01-.005-.163c.045-3.62-3.089-6.904-6.706-7.026-.015 0-.03 0-.044.002a.29.29 0 01-.043.003c-.036 0-.08-.004-.127-.007-.057-.003-.122-.008-.187-.008-.576 0-.685.41-.7.653-.032.565.514.604.776.623zm5.578 10.337c-.074-.058-.151-.116-.224-.175a21.36 21.36 0 00-1.186-.868 71.497 71.497 0 01-.245-.171c-.506-.355-.96-.528-1.39-.528-.578 0-1.082.32-1.498.95-.184.279-.408.415-.683.415a1.35 1.35 0 01-.55-.139c-1.632-.74-2.797-1.874-3.463-3.371-.322-.724-.218-1.197.349-1.582.321-.218.92-.625.878-1.404-.048-.884-2-3.545-2.821-3.847a1.602 1.602 0 00-1.09-.003c-.944.318-1.622.876-1.96 1.614-.328.713-.313 1.55.042 2.42 1.025 2.518 2.467 4.713 4.286 6.524 1.78 1.773 3.966 3.226 6.5 4.317.23.098.469.152.644.19l.148.036a.25.25 0 00.064.009h.02c1.192 0 2.623-1.09 3.062-2.33.386-1.088-.318-1.626-.883-2.058zm-5.052-7.461c-.204.005-.628.016-.777.449-.07.202-.062.377.024.521.127.211.37.276.59.312.8.128 1.21.57 1.292 1.391.038.383.296.65.627.65a.46.46 0 00.074-.005c.398-.047.591-.34.574-.868.006-.553-.283-1.18-.775-1.68-.493-.5-1.088-.783-1.629-.77z"></path></g></svg>