<?xml version="1.0" encoding="utf-8"?>
<!-- Generator: Adobe Illustrator 25.2.1, SVG Export Plug-In . SVG Version: 6.00 Build 0)  -->
<svg version="1.1" id="Layer_1" xmlns="http://www.w3.org/2000/svg" xmlns:xlink="http://www.w3.org/1999/xlink" x="0px" y="0px"
	 viewBox="0 0 64 64" style="enable-background:new 0 0 64 64;" xml:space="preserve">
<style type="text/css">
	.st0{fill:#020203;}
</style>
<path class="st0" d="M28.69,32.14c2.24,0,4.48,0,6.73,0c0.42,0,0.8,0.05,0.82,0.6c0.02,0.43-0.12,0.72-0.6,0.76
	c-0.13,0.01-0.26,0.03-0.39,0.05c-1.68,0.23-2.48,0.98-2.68,2.68c-0.13,1.1-0.15,2.21-0.18,3.32c-0.04,1.35-0.05,2.69-0.04,4.04
	c0,0.62-0.24,1.04-0.79,1.3c-0.22,0.1-0.42,0.23-0.64,0.32c-6,2.61-12.22,3.24-18.59,1.86c-3.47-0.75-6.49-2.41-8.81-5.24
	c-4.85-5.92-3.5-14.4,1.02-18.68c4.09-3.88,9.01-5.52,14.6-4.92c2.2,0.24,4.36,0.79,6.53,1.28c1.16,0.27,2.09,0.1,2.85-0.87
	c0.42-0.54,1.5-0.75,2.09-0.44c0.19,0.1,0.35,0.32,0.43,0.53c0.1,0.26,0.13,0.55,0.15,0.83c0.13,2.32,0.28,4.64,0.38,6.97
	c0.05,1.26-0.35,1.54-1.6,1.2c-0.65-0.18-1-0.67-1.29-1.21c-0.61-1.19-1.36-2.25-2.33-3.14c-2.82-2.62-6.09-3.74-9.91-2.89
	c-2.91,0.65-5.21,2.28-6.66,4.85c-3.17,5.59-2.25,12,1.37,16.3c3.17,3.77,8.59,5.1,13.05,3.23c0.84-0.35,1.3-0.9,1.4-1.78
	c0.24-2.3,0.26-4.6-0.02-6.89c-0.05-0.4-0.19-0.8-0.35-1.18c-0.33-0.81-0.93-1.3-1.81-1.4c-0.5-0.06-1-0.1-1.5-0.12
	c-0.46-0.02-0.76-0.17-0.76-0.68c0-0.49,0.2-0.68,0.81-0.68C24.21,32.13,26.45,32.14,28.69,32.14z"/>
<path class="st0" d="M63.77,44.5c-0.05-0.01-0.09,0-0.15-0.02c-1.25-0.28-2.34-0.83-3.18-1.81c-2.59-3.01-5.18-6.04-7.76-9.07
	c-0.18-0.2-0.31-0.44-0.53-0.76c0.57-0.21,1.06-0.4,1.54-0.57c1.99-0.71,3.51-1.98,4.58-3.79c1.94-3.27,0.99-7.13-2.32-9.02
	c-0.95-0.55-2.02-1-3.09-1.18c-1.77-0.31-3.58-0.49-5.38-0.51c-4.79-0.06-9.58-0.02-14.37-0.02c-0.2,0-0.43-0.05-0.58,0.03
	c-0.2,0.11-0.41,0.3-0.49,0.5c-0.08,0.22-0.02,0.5-0.02,0.82c0.79,0.09,1.46,0.12,2.12,0.28c1.41,0.26,2.31,1.25,2.43,2.67
	c0.07,0.73,0.11,1.47,0.11,2.21c0.02,5.39,0.03,10.78,0.03,16.17c0,0.5-0.03,1-0.11,1.49c-0.3,1.88-1.11,2.63-3.02,2.8
	c-0.49,0.04-0.99,0.07-1.51,0.11v1.34h15.41c0.36-1.13,0.19-1.37-0.87-1.41c-0.54-0.03-1.08-0.08-1.62-0.15
	c-0.8-0.11-1.42-0.54-1.67-1.29c-0.26-0.78-0.5-1.6-0.52-2.4c-0.06-2.19-0.01-4.38,0.01-6.58c0.01-0.25,0.09-0.49,0.15-0.8
	c0.56,0,1.06,0.03,1.55-0.01c0.58-0.05,0.97,0.15,1.34,0.6c3.01,3.58,6.06,7.13,9.04,10.73c0.8,0.97,1.69,1.42,2.96,1.39
	c1.96-0.04,3.93-0.04,5.89-0.03C63.76,45.65,63.77,45.08,63.77,44.5z M50.44,30.08c-0.82,0.59-1.72,1.06-2.74,1.13
	c-1.58,0.11-3.16,0.15-4.85,0.23c-0.08-0.5-0.17-0.83-0.17-1.17c-0.04-3-0.07-5.99-0.11-8.99c-0.01-0.49,0.21-0.78,0.67-0.9
	c2.22-0.59,4.43-0.57,6.5,0.45C53.22,22.55,53.59,27.78,50.44,30.08z"/>
</svg>
