<?xml version="1.0" encoding="utf-8"?>
<!-- Generator: Adobe Illustrator 25.2.1, SVG Export Plug-In . SVG Version: 6.00 Build 0)  -->
<svg version="1.1" id="Layer_1" xmlns="http://www.w3.org/2000/svg" xmlns:xlink="http://www.w3.org/1999/xlink" x="0px" y="0px"
	 viewBox="0 0 64 64" style="enable-background:new 0 0 64 64;" xml:space="preserve">
<style type="text/css">
	.st0{fill:#4BAF4F;}
	.st1{fill:#252122;}
	.st2{fill:#262223;}
</style>
<path class="st0" d="M11.42,54.8c-3.5,0-6.94,0-10.85,0C8.68,38.77,16.66,22.98,24.66,7.16c3.51,0,6.94,0,10.85,0
	C27.4,23.19,19.41,38.97,11.42,54.8z"/>
<path class="st1" d="M24.8,54.74c-3.49,0-6.82,0-10.46,0c8.03-15.88,15.95-31.56,23.91-47.29c3.41,0,6.76,0,10.46,0
	C40.69,23.32,32.74,39.04,24.8,54.74z"/>
<path class="st2" d="M63.39,54.67c-9.66-4.92-19-9.68-28.51-14.53c1.32-2.61,2.56-5.09,3.83-7.54c0.17-0.33,0.5-0.63,0.83-0.8
	c7.88-4.15,15.77-8.28,23.89-12.52c0,3.65,0,7.01,0,10.47c-5.21,2.1-10.43,4.23-16.44,6.66c1.02,0.9,11.72,5.58,16.41,7.34
	C63.39,47.34,63.39,50.75,63.39,54.67z"/>
</svg>
