<svg width="22" height="22" viewBox="0 0 22 22" fill="none" xmlns="http://www.w3.org/2000/svg">
<path fill-rule="evenodd" clip-rule="evenodd" d="M10.8815 0C5.04225 0 0.308594 4.73366 0.308594 10.5729C0.308594 16.4122 5.04225 21.1458 10.8815 21.1458C16.7208 21.1458 21.4544 16.4122 21.4544 10.5729C21.4544 4.73366 16.7208 0 10.8815 0ZM10.587 8.95965L10.5648 8.5938C10.4982 7.64558 11.0825 6.7795 12.0069 6.44352C12.3471 6.32406 12.924 6.30912 13.3011 6.41365C13.4491 6.45845 13.7301 6.60777 13.9298 6.74217L14.2921 6.98855L14.6915 6.86163C14.9134 6.79443 15.2092 6.68244 15.3423 6.60777C15.468 6.54058 15.579 6.50325 15.579 6.52564C15.579 6.65257 15.3053 7.08561 15.0761 7.32453C14.7655 7.66052 14.8542 7.69038 15.4828 7.46639C15.86 7.33947 15.8674 7.33947 15.7934 7.48133C15.7491 7.55599 15.5198 7.81731 15.2758 8.05623C14.8616 8.46687 14.8394 8.51167 14.8394 8.85512C14.8394 9.38522 14.588 10.4902 14.3365 11.095C13.8706 12.2299 12.8722 13.4021 11.8738 13.9919C10.4687 14.8207 8.59759 15.0297 7.02234 14.5444C6.49725 14.3802 5.595 13.962 5.595 13.8874C5.595 13.865 5.86863 13.8351 6.20143 13.8276C6.89661 13.8127 7.59179 13.6186 8.18344 13.2751L8.5828 13.0362L8.12427 12.8794C7.47346 12.6554 6.88922 12.1403 6.74131 11.655C6.69693 11.4982 6.71172 11.4907 7.12587 11.4907L7.55482 11.4832L7.19243 11.3115C6.76349 11.095 6.37153 10.7291 6.17925 10.3558C6.03873 10.0871 5.86124 9.40762 5.91301 9.35536C5.9278 9.33296 6.0831 9.37776 6.2606 9.43749C6.77089 9.62414 6.83745 9.57935 6.54163 9.26576C5.98696 8.69833 5.81686 7.85464 6.0831 7.05575L6.20883 6.69737L6.69693 7.18268C7.69533 8.16076 8.87122 8.74312 10.2172 8.91485L10.587 8.95965Z" fill="white"/>
</svg>
