<svg xmlns="http://www.w3.org/2000/svg" width="1137.936" height="689.963" viewBox="0 0 1137.936 689.963">
    <g transform="translate(-115 -394.656)">
        <g transform="translate(-458.747 170.124)">
            <path d="M787.642,788.272l-213.9,84.016,28.907-42.117,213.9-84.016Z" transform="translate(0 -276.338)" fill="#be24e7"/>
            <path d="M984.849,654.567,859.245,703.9l16.975-24.732,125.6-49.337Z" transform="translate(-151.247 -214.715)" fill="#2f92f8"/>
            <path d="M2845.508,955.134,2740.717,996.3l14.162-20.634L2859.67,934.5Z" transform="translate(-1147.988 -376.117)" fill="#2f92f8"/>
            <path d="M2707.411,1034.032l-160.9,63.2,21.745-31.682,160.9-63.2Z" transform="translate(-1045.103 -412.061)" fill="#be24e7"/>
            <path d="M2543.894,270.476l-233.329,91.65,31.533-45.944,233.329-91.65Z" transform="translate(-920.108)" fill="#2f92f8"/>
            <path d="M820.172,1597.848l-88.881,34.912,12.012-17.5,88.881-34.912Z" transform="translate(-83.462 -718.265)" fill="#2f92f8"/>
            <path d="M1863.16,1325.293l-124.517,43.486,22.767-40.158,124.517-43.486Z" transform="translate(-1015.181 -641.871)" fill="#2f92f8"/>
        </g>
    </g>
</svg>