<?xml version="1.0" encoding="utf-8"?>
<!-- Generator: Adobe Illustrator 25.2.1, SVG Export Plug-In . SVG Version: 6.00 Build 0)  -->
<svg version="1.1" id="Layer_1" xmlns="http://www.w3.org/2000/svg" xmlns:xlink="http://www.w3.org/1999/xlink" x="0px" y="0px"
	 viewBox="0 0 64 64" style="enable-background:new 0 0 64 64;" xml:space="preserve">
<style type="text/css">
	.st0{fill:#E52921;}
	.st1{fill:#E63021;}
	.st2{fill:#E52626;}
</style>
<path class="st0" d="M10.32,13.6c-1.24,0-2.41,0-3.59,0c-0.2-2.46,1.39-5.13,3.74-6.29c1.9-0.94,3.93-1.15,6.01-1.12
	c1.64,0.02,3.29,0.14,4.8,0.84c2.03,0.93,3.08,2.58,3.13,4.78c0.06,2.82,0.02,5.64,0.04,8.45c0.01,1.61-0.01,3.24,0.08,4.85
	c0.05,0.98,0.47,1.23,1.44,1.09c0.23-0.04,0.47-0.09,0.76-0.16c0,0.88,0.01,1.74-0.01,2.59c0,0.13-0.17,0.3-0.31,0.36
	c-1.21,0.49-2.44,0.59-3.68,0.17c-0.81-0.28-1.32-0.87-1.54-1.71c-0.11-0.42-0.16-0.85-0.23-1.26c-0.65,0.54-1.24,1.14-1.93,1.59
	c-2.29,1.53-4.86,1.85-7.52,1.5c-0.86-0.11-1.73-0.36-2.53-0.7c-1.8-0.78-2.8-2.23-3.06-4.14c-0.33-2.5,0.09-4.76,2.32-6.33
	c1.17-0.82,2.51-1.22,3.89-1.49c2.06-0.39,4.13-0.71,6.19-1.09c0.43-0.08,0.86-0.23,1.23-0.44c1.36-0.71,1.71-2.63,0.77-4
	c-0.55-0.8-1.31-1.26-2.25-1.46c-1.92-0.39-3.8-0.34-5.64,0.43c-1.24,0.52-1.79,1.53-2,2.78C10.4,13.09,10.37,13.32,10.32,13.6z
	 M20.73,17.62c-0.75,0.23-1.46,0.51-2.19,0.65c-1.14,0.22-2.28,0.37-3.43,0.53c-1.28,0.18-2.58,0.37-3.71,1.04
	c-1.38,0.82-1.88,2.07-1.65,3.62c0.2,1.42,1.13,2.21,2.45,2.54c1.69,0.42,3.37,0.31,5-0.32c1.84-0.72,3.24-1.92,3.5-3.96
	C20.87,20.37,20.73,18.97,20.73,17.62z"/>
<path class="st1" d="M33.81,60.63c1.59,0,3.1,0,4.65,0c0,1.15,0,2.24,0,3.37c-2.76,0-5.5,0-8.32,0c0-20.19,0-40.37,0-60.61
	c-1.57,0-3.06,0-4.59,0c0-1.14,0-2.24,0-3.39c2.74,0,5.47,0,8.26,0C33.81,20.17,33.81,40.34,33.81,60.63z"/>
<path class="st2" d="M53.34,30.48c0-0.94,0-1.91,0-2.91c1.16,0,2.25,0,3.38,0c0.02,0.13,0.05,0.26,0.05,0.39
	c-0.01,6.92,0.01,13.84-0.03,20.77c-0.01,2.18-0.43,4.29-1.59,6.19c-1.2,1.96-3.01,3.05-5.21,3.51c-2.95,0.62-5.89,0.56-8.7-0.65
	c-2.35-1.02-3.83-2.76-4-5.47c1.21,0,2.42,0,3.65,0c0.09,1.36,0.93,2.19,2.05,2.73c1.96,0.95,4.04,1.16,6.11,0.47
	c2.14-0.71,3.39-2.32,3.83-4.47c0.32-1.59,0.39-3.24,0.57-4.85c-0.08-0.02-0.16-0.04-0.23-0.06c-0.21,0.34-0.4,0.69-0.64,1
	c-1.61,2.16-3.9,2.91-6.46,2.88c-4.82-0.06-8.35-3.01-9.39-7.89c-0.74-3.48-0.48-6.9,1.21-10.08c1.65-3.09,4.3-4.72,7.81-4.96
	c1.93-0.13,3.77,0.14,5.36,1.28C51.93,28.94,52.58,29.74,53.34,30.48z M40.22,39.03c0.16,0.8,0.28,2.28,0.74,3.67
	c0.76,2.3,2.3,3.86,4.86,4.08c2.77,0.24,4.94-0.77,6.15-3.3c1.53-3.2,1.64-6.52,0.22-9.79c-0.95-2.19-2.7-3.34-5.12-3.41
	c-2.3-0.07-4.17,0.74-5.46,2.7C40.53,34.62,40.34,36.48,40.22,39.03z"/>
</svg>
