<?xml version="1.0" encoding="utf-8"?>
<!-- Generator: Adobe Illustrator 25.2.1, SVG Export Plug-In . SVG Version: 6.00 Build 0)  -->
<svg version="1.1" id="Layer_1" xmlns="http://www.w3.org/2000/svg" xmlns:xlink="http://www.w3.org/1999/xlink" x="0px" y="0px"
	 viewBox="0 0 64 64" style="enable-background:new 0 0 64 64;" xml:space="preserve">
<style type="text/css">
	.st0{fill-rule:evenodd;clip-rule:evenodd;fill:url(#SVGID_1_);}
	.st1{clip-path:url(#SVGID_3_);fill-rule:evenodd;clip-rule:evenodd;fill:#A5C83F;}
	.st2{opacity:0.36;clip-path:url(#SVGID_5_);fill-rule:evenodd;clip-rule:evenodd;fill:url(#SVGID_6_);enable-background:new    ;}
	.st3{opacity:0.71;clip-path:url(#SVGID_8_);fill-rule:evenodd;clip-rule:evenodd;fill:url(#SVGID_9_);enable-background:new    ;}
</style>
<linearGradient id="SVGID_1_" gradientUnits="userSpaceOnUse" x1="49.5619" y1="56.4375" x2="23.2532" y2="10.8695" gradientTransform="matrix(1 0 0 -1 0 66)">
	<stop  offset="0" style="stop-color:#04A48C"/>
	<stop  offset="0.9995" style="stop-color:#A5C83F"/>
</linearGradient>
<path class="st0" d="M12.82,32.38c0-5.45,5.2-12.55,14.07-16.36c15.47-6.72,24.34-0.51,26.62,5.32c2.16,5.45-2.16,15.21-9.38,22.31
	c5.2-3.8,9.51-7.73,12.42-11.66c3.93-5.2,5.58-10.14,4.06-14.07c-2.16-5.71-10.9-7.61-21.81-6.09s-19.27,4.31-25.99,7.86
	C5.22,23.5,1.41,27.94,0.78,33.14c-0.76,7.48,7.35,17.62,25.74,18.89c9.64,0.63,19.02,0.89,36.89-3.55
	C61.25,48.61,12.7,54.69,12.82,32.38z"/>
<g>
	<g>
		<defs>
			<path id="SVGID_2_" d="M32.07,42.38c5.83,0,10.52-4.69,10.52-10.52S37.9,21.34,32.07,21.34s-10.52,4.69-10.52,10.52
				C21.67,37.69,26.36,42.38,32.07,42.38L32.07,42.38z"/>
		</defs>
		<clipPath id="SVGID_3_">
			<use xlink:href="#SVGID_2_"  style="overflow:visible;"/>
		</clipPath>
		<path class="st1" d="M32.07,42.13c5.83,0,10.52-4.69,10.52-10.52S37.9,21.08,32.07,21.08s-10.52,4.69-10.52,10.52
			C21.67,37.44,26.36,42.13,32.07,42.13L32.07,42.13z"/>
	</g>
	<g>
		<defs>
			<path id="SVGID_4_" d="M32.07,42.38c5.83,0,10.52-4.69,10.52-10.52S37.9,21.34,32.07,21.34s-10.52,4.69-10.52,10.52
				C21.67,37.69,26.36,42.38,32.07,42.38L32.07,42.38z"/>
		</defs>
		<clipPath id="SVGID_5_">
			<use xlink:href="#SVGID_4_"  style="overflow:visible;"/>
		</clipPath>
		
			<linearGradient id="SVGID_6_" gradientUnits="userSpaceOnUse" x1="15.0806" y1="40.9871" x2="39.6767" y2="40.9871" gradientTransform="matrix(1 0 0 -1 0 66)">
			<stop  offset="0" style="stop-color:#0592C0"/>
			<stop  offset="0.9995" style="stop-color:#A5C83F"/>
		</linearGradient>
		<path class="st2" d="M27.38,37.31c6.72,0,12.3-5.58,12.3-12.3s-5.58-12.3-12.3-12.3s-12.3,5.58-12.3,12.3S20.53,37.31,27.38,37.31
			L27.38,37.31z"/>
	</g>
	<g>
		<defs>
			<path id="SVGID_7_" d="M32.07,42.38c5.83,0,10.52-4.69,10.52-10.52S37.9,21.34,32.07,21.34s-10.52,4.69-10.52,10.52
				C21.67,37.69,26.36,42.38,32.07,42.38L32.07,42.38z"/>
		</defs>
		<clipPath id="SVGID_8_">
			<use xlink:href="#SVGID_7_"  style="overflow:visible;"/>
		</clipPath>
		
			<linearGradient id="SVGID_9_" gradientUnits="userSpaceOnUse" x1="39.8579" y1="29.5053" x2="30.1575" y2="46.307" gradientTransform="matrix(1 0 0 -1 0 66)">
			<stop  offset="0" style="stop-color:#92C143"/>
			<stop  offset="1" style="stop-color:#0592C0"/>
		</linearGradient>
		<path class="st3" d="M34.99,37.82c5.32,0,9.64-4.31,9.64-9.76s-4.31-9.76-9.64-9.76s-9.64,4.31-9.64,9.76S29.66,37.82,34.99,37.82
			L34.99,37.82z"/>
	</g>
</g>
</svg>
