<?xml version="1.0" encoding="utf-8"?>
<!-- Generator: Adobe Illustrator 25.2.1, SVG Export Plug-In . SVG Version: 6.00 Build 0)  -->
<svg version="1.1" id="Layer_1" xmlns="http://www.w3.org/2000/svg" xmlns:xlink="http://www.w3.org/1999/xlink" x="0px" y="0px"
	 viewBox="0 0 64 64" style="enable-background:new 0 0 64 64;" xml:space="preserve">
<style type="text/css">
	.st0{fill:#EC652D;}
	.st1{fill:#F18B58;}
	.st2{fill:#EC662F;}
</style>
<g>
	<g>
		<path class="st0" d="M51.77,12.53c0.92,0.15,1.84,0.27,2.75,0.44c2.11,0.39,4.1,1.05,5.85,2.33c3.14,2.28,4.06,5.59,2.63,9.38
			c-1.05,2.77-2.82,5.08-4.83,7.21c-2.7,2.86-5.78,5.25-9.06,7.39c-0.44,0.29-0.76,0.2-0.9-0.29c-0.1-0.32-0.14-0.68-0.08-1
			c0.37-2.16,0.78-4.3,1.19-6.46c0.02-0.07,0.05-0.14,0.1-0.22c0.95,0,1.9,0,2.92,0c0.15-0.88,0.31-1.75,0.48-2.69
			c-1.02,0-1.99,0-3.03,0c0.22-1.33,0.44-2.58,0.66-3.89c-1.07,0-2.12,0-3.23,0c-0.22,1.27-0.44,2.55-0.68,3.87
			c-0.76,0-1.53,0-2.33,0c-0.17,0.9-0.32,1.77-0.48,2.7c0.82,0,1.58,0,2.38,0c-0.42,2.31-0.85,4.54-1.22,6.78
			c-0.19,1.16-0.2,2.33,0.7,3.33c-0.19,0.12-0.36,0.22-0.51,0.32c-6.92,3.82-14.21,6.63-21.97,8.11c-2.01,0.37-4.04,0.54-6.07,0.82
			c-0.12,0.02-0.22,0.07-0.32,0.1c-0.22,0-0.44,0-0.65,0c-0.1-0.03-0.19-0.12-0.29-0.12c-1,0-2.02,0-3.03,0
			c-0.1,0-0.19,0.07-0.29,0.12c-0.22,0-0.44,0-0.65,0c-0.14-0.03-0.25-0.1-0.37-0.12c-2.24-0.22-4.47-0.63-6.53-1.63
			C2.6,47.9,0.99,46.2,0.48,43.58c-0.02-0.12-0.1-0.22-0.14-0.32c0-0.9,0-1.82,0-2.72c0.03-0.08,0.1-0.17,0.12-0.27
			c0.37-1.97,1.17-3.76,2.24-5.42c2.18-3.37,5.06-6.02,8.24-8.4c0.93-0.7,1.9-1.36,2.86-2.02c0.03,0.02,0.07,0.05,0.12,0.07
			c-1.02,5.83-2.06,11.68-3.08,17.54c1.07,0,2.07,0,3.09,0c0.14-0.76,0.27-1.48,0.41-2.31c0.56,0.92,1.21,1.6,2.09,2.02
			c2.35,1.17,5.34,0.76,7.38-1.07c1.97-1.78,2.8-4.06,2.79-6.7c-0.02-2.57-1.31-4.57-3.47-5.37c-2.41-0.88-5.1-0.22-6.71,1.7
			c-0.1,0.12-0.2,0.22-0.36,0.37c0-0.15-0.02-0.25,0-0.34c0.49-2.62,0.97-5.22,1.5-7.83c0.05-0.24,0.29-0.49,0.49-0.61
			c3.72-2.06,7.6-3.79,11.59-5.25c4.91-1.82,9.93-3.23,15.14-3.84c0.63-0.07,1.26-0.19,1.89-0.29
			C48.37,12.53,50.07,12.53,51.77,12.53z M41.78,36.38c0.07-1.16,0.24-2.28,0.19-3.37c-0.12-2.38-1.6-4.1-3.91-4.59
			c-1.99-0.42-3.89-0.17-5.66,0.87c-2.74,1.61-4.3,4.84-3.81,8.28c0.34,2.43,1.82,3.94,4.16,4.62c1.05,0.31,2.14,0.34,3.23,0.19
			c1.94-0.27,3.55-1.14,4.89-2.62c-0.63-0.59-1.22-1.16-1.82-1.73c-0.37,0.32-0.7,0.65-1.07,0.88c-1.56,1.02-3.2,1.19-4.88,0.29
			c-1.09-0.59-1.61-1.72-1.39-2.84C35.01,36.38,38.33,36.38,41.78,36.38z"/>
		<path class="st1" d="M12.46,50.75c0.1-0.03,0.19-0.12,0.29-0.12c1,0,2.02,0,3.03,0c0.1,0,0.19,0.07,0.29,0.12
			C14.84,50.75,13.65,50.75,12.46,50.75z"/>
		<path class="st0" d="M23.2,34.59c-0.08,2.12-0.82,3.87-2.89,4.81c-0.83,0.37-1.72,0.41-2.6,0.22c-1.41-0.31-2.38-1.41-2.5-2.97
			c-0.14-2.01,0.54-3.7,2.19-4.93c1.02-0.75,2.18-0.97,3.4-0.71c1.29,0.25,2.24,1.41,2.38,2.82C23.23,34.08,23.2,34.34,23.2,34.59z"
			/>
		<path class="st2" d="M32.02,34c0.29-2.33,3.25-3.98,5.46-3.04c1.19,0.49,1.8,1.78,1.44,3.04C36.63,34,34.33,34,32.02,34z"/>
	</g>
</g>
</svg>
