<svg viewBox="0 0 20 18" xmlns="http://www.w3.org/2000/svg" height="17px"><path d="M15.307 9.315l.99 1.782h1.965a.54.54 0 01.387.921l-1.803 1.968.999 2.296a.544.544 0 01-.775.68l-2.416-1.358-2.414 1.358a.545.545 0 01-.776-.68l.966-2.217m-7.929-4.75l-.99 1.782H1.547a.539.539 0 00-.388.921l1.804 1.968-1 2.296a.545.545 0 00.776.68l2.415-1.358 2.415 1.358a.545.545 0 00.776-.68l-.966-2.217m2.816-12.851l1.575 3.148 3.03.303a.384.384 0 01.232.653l-2.495 2.496.925 3.39a.383.383 0 01-.542.444l-3.068-1.534-3.067 1.534a.384.384 0 01-.541-.444l.925-3.39-2.496-2.496a.384.384 0 01.233-.654l3.03-.303 1.572-3.147a.383.383 0 01.687 0z" stroke="#9DA8B2" stroke-width="1.2" stroke-linecap="round" stroke-linejoin="round"></path></svg>