<svg viewBox="0 0 19 19" xmlns="http://www.w3.org/2000/svg" height="17px"><path d="M9.988.895l1.152 2.074h1.963a.538.538 0 01.387.92l-1.803 1.97 1 2.295a.544.544 0 01-.775.68L9.5 7.473 7.084 8.83a.544.544 0 01-.775-.679l.999-2.293-1.803-1.97a.538.538 0 01.387-.92h1.964L9.008.896a.549.549 0 01.98 0v0zm.7 14.543v2.968h2.968m-.593-5.937v2.969h2.968m-.593-5.344v2.969h2.968m-2.968 0l2.374-2.376m-9.499 4.751v2.968h-2.97m.595-5.937v2.969h-2.97m.595-5.344v2.969H.592m2.971 0l-2.376-2.376" stroke="#9DA8B2" stroke-width="1.2" stroke-linecap="round" stroke-linejoin="round"></path><defs><clipPath id="clip0"><path fill="#fff" d="M0 0h19v19H0z"></path></clipPath></defs></svg>