<svg viewBox="0 0 19 19" xmlns="http://www.w3.org/2000/svg" height="17px"><g stroke="#9DA8B2" stroke-width="1.2" stroke-linecap="round" stroke-linejoin="round"><path d="M5.313 4.768l-3.789.817A1.182 1.182 0 00.62 6.99l2.25 10.385a1.182 1.182 0 001.405.905l5.523-1.197M2.766 7.125a.296.296 0 01.352.227m-.58.128a.296.296 0 01.227-.355m.125.583a.296.296 0 01-.352-.228m.58-.125a.297.297 0 01-.227.353"></path><path d="M17.853 5.993l-7.491-2.388a.792.792 0 00-.995.514L5.903 14.986a.792.792 0 00.514.995l7.491 2.388a.792.792 0 00.995-.514l3.464-10.867a.792.792 0 00-.514-.995z"></path><path d="M12.852 8.737l-2.404 1.712.97 2.788 2.405-1.712-.97-2.788zM11.04 5.679a.298.298 0 01.192.372m-.566-.18a.297.297 0 01.373-.192m-.179.565a.296.296 0 01-.194-.373m.566.18a.297.297 0 01-.373.193m2.553 9.486a.297.297 0 01.192.372m-.564-.179a.298.298 0 01.372-.193m-.18.566a.297.297 0 01-.193-.373m.566.179a.297.297 0 01-.373.194"></path><path d="M14.763 5.008V1.776A1.228 1.228 0 0013.575.595H6.571a1.242 1.242 0 00-1.257 1.173v10.627a1.181 1.181 0 001.039 1.18M7.441 2.37a.296.296 0 01.295.299m-.59-.004a.297.297 0 01.296-.295m0 .594a.298.298 0 01-.296-.3m.593.005a.297.297 0 01-.299.295"></path></g><defs><clipPath id="clip0"><path fill="#fff" d="M0 0h19v19H0z"></path></clipPath></defs></svg>