<svg viewBox="0 0 19 19" xmlns="http://www.w3.org/2000/svg" height="17px"><g stroke="#9DA8B2" stroke-width="1.2" stroke-linecap="round" stroke-linejoin="round"><path d="M6.749 3.056l5.72 2.288 5.72-2.288"></path><path d="M12.469 13.063c.39 0 .778-.08 1.136-.238l4.096-1.82a1.188 1.188 0 00.705-1.086V3.744a1.188 1.188 0 00-.705-1.086L13.605.838a2.793 2.793 0 00-2.272 0l-4.096 1.82a1.187 1.187 0 00-.706 1.083v2.197m0 2.086a.296.296 0 01.297.297m-.594 0a.296.296 0 01.297-.297m0 .594a.297.297 0 01-.297-.297m.594 0a.297.297 0 01-.297.297m3.743 2.916a.296.296 0 01.297.297m-.596-.001a.297.297 0 01.296-.296m.003.593a.297.297 0 01-.296-.296m.593-.001a.297.297 0 01-.297.297m-5.821 3.185a.297.297 0 01.297.297m-.594.001a.297.297 0 01.297-.298m0 .594a.297.297 0 01-.297-.297m.594.001a.297.297 0 01-.297.296M2.375 10.86a.297.297 0 01.297.296m-.594 0a.297.297 0 01.297-.297m0 .594a.297.297 0 01-.297-.297m.594 0a.297.297 0 01-.297.297m.935 1.487a.296.296 0 01.249.339m-.587-.089a.297.297 0 01.338-.25m-.089.588a.298.298 0 01-.249-.338m.591.089a.297.297 0 01-.338.249m5.771 1.062a.296.296 0 01.297.296m-.593-.003a.296.296 0 01.296-.297m0 .597a.297.297 0 01-.297-.296m.594-.004a.297.297 0 01-.297.297m3.473-12.625a.297.297 0 01.297.297m-.594-.002a.297.297 0 01.297-.297m0 .597a.297.297 0 01-.297-.298m.594-.002a.297.297 0 01-.297.297m3.859 2.825a.297.297 0 01.297.296m-.594 0a.297.297 0 01.297-.296m0 .593a.297.297 0 01-.297-.297m.594 0a.297.297 0 01-.297.297m0 2.375a.297.297 0 01.297.297m-.594 0a.297.297 0 01.297-.297m0 .594a.297.297 0 01-.297-.297m.594 0a.297.297 0 01-.297.297m-9.797 1.154v7.718"></path><path d="M.812 8.4l5.72 2.287 5.72-2.287"></path><path d="M5.395 18.165a2.793 2.793 0 002.272 0l4.096-1.821a1.187 1.187 0 00.706-1.085V9.084a1.188 1.188 0 00-.706-1.086l-4.096-1.82a2.793 2.793 0 00-2.272 0L1.3 7.995a1.187 1.187 0 00-.705 1.088v6.175a1.187 1.187 0 00.705 1.086l4.096 1.82z"></path></g><defs><clipPath id="clip0"><path fill="#fff" d="M0 0h19v19H0z"></path></clipPath></defs></svg>