<svg viewBox="0 0 19 19" xmlns="http://www.w3.org/2000/svg" height="17px"><g stroke="#9DA8B2" stroke-width="1.2" stroke-linecap="round" stroke-linejoin="round"><path d="M12.067 12.81c.812-.811.154-2.785-1.47-4.408-1.623-1.623-3.596-2.281-4.408-1.47-.811.812-.153 2.786 1.47 4.409 1.623 1.623 3.596 2.281 4.408 1.47z"></path><path d="M5.859 7.68L.703 16.72a1.187 1.187 0 001.577 1.577l9.041-5.151m1.166-7.05a.297.297 0 010 .42m-.42-.42a.297.297 0 01.42 0m-.42.417a.299.299 0 010-.42m.42.42a.297.297 0 01-.42 0m3.779-3.779a.297.297 0 010 .42m-.419-.42a.296.296 0 01.42 0m-.421.42a.297.297 0 010-.42m.42.42a.297.297 0 01-.42 0m.42 7.976a.296.296 0 010 .421m-.419-.421a.297.297 0 01.42 0m-.421.421a.296.296 0 010-.42m.42.42a.297.297 0 01-.42 0M6.61 3.574a.298.298 0 010 .42m-.42-.42a.297.297 0 01.42 0m-.42.42a.297.297 0 010-.42m.42.42a.297.297 0 01-.42 0m3.988-3.4c.167 1.496.024 3.01-.42 4.449m3.359-3.358l-.42 2.098m5.709 5.039a10.954 10.954 0 00-4.449.42m3.359-3.359l-2.1.42"></path></g><defs><clipPath id="clip0"><path fill="#fff" d="M0 0h19v19H0z"></path></clipPath></defs></svg>