<svg viewBox="0 0 30 30" xmlns="http://www.w3.org/2000/svg" height="17px"><path d="M10.14 22.304a3.504 3.504 0 110-7.008 3.504 3.504 0 010 7.008zm0-6.126a2.617 2.617 0 102.618 2.617 2.625 2.625 0 00-2.617-2.616v-.001zm7.547 8.806a3.504 3.504 0 110-7.007 3.504 3.504 0 010 7.007zm0-6.125a2.617 2.617 0 102.617 2.617 2.624 2.624 0 00-2.617-2.617z" fill="#fff" stroke="#fff" stroke-width=".5"></path><path d="M17.687 18.86a.44.44 0 01-.408-.608c1.039-2.545-.05-5.716-.923-7.6a9.147 9.147 0 01-1.548 4.352 9.381 9.381 0 01-2.038 2.215.442.442 0 01-.518-.715 8.64 8.64 0 001.841-2.019 8.024 8.024 0 001.338-5.637.44.44 0 01.81-.295 17.94 17.94 0 011.584 3.356 9.503 9.503 0 01.275 6.675.44.44 0 01-.413.276z" fill="#fff" stroke="#fff" stroke-width=".5"></path><path d="M13.765 9.831a.44.44 0 01-.126-.864l4.219-1.275a.442.442 0 11.254.846l-4.218 1.275a.433.433 0 01-.129.018zm8.618 2.664a.44.44 0 01-.441-.44v-.236a.441.441 0 11.883 0v.235a.44.44 0 01-.442.441zm0 2.175a.442.442 0 01-.441-.442v-.058a.442.442 0 11.883 0v.058a.443.443 0 01-.442.442zm-.971-1.205h-.177a.441.441 0 010-.883h.177a.442.442 0 010 .883zm2.178 0h-.177a.441.441 0 010-.883h.176a.442.442 0 010 .883zM8.06 10.262a.441.441 0 01-.441-.442v-.294a.442.442 0 11.883 0v.294a.442.442 0 01-.442.442zm0 3a.44.44 0 01-.441-.44v-.236a.441.441 0 11.883 0v.236a.442.442 0 01-.442.44zm-1.383-1.618h-.235a.441.441 0 010-.883h.235a.442.442 0 010 .883zm3.002 0h-.236a.441.441 0 010-.883h.236a.442.442 0 010 .883zM23.26 7.559a1.28 1.28 0 110-2.559 1.28 1.28 0 010 2.559zm0-1.678a.396.396 0 10.37.245.396.396 0 00-.37-.25v.005z" fill="#fff" stroke="#fff" stroke-width=".5"></path></svg>