<svg viewBox="0 0 19 19" xmlns="http://www.w3.org/2000/svg" height="17px"><g stroke="#9DA8B2" stroke-width="1.2" stroke-linecap="round" stroke-linejoin="round"><path d="M9.5 18.406A8.906 8.906 0 109.5.594a8.906 8.906 0 000 17.812z"></path><path d="M9.5 15.225a5.725 5.725 0 100-11.45 5.725 5.725 0 000 11.45z"></path><path d="M8.029 11.257a1.759 1.759 0 001.47.692c.902 0 1.634-.548 1.634-1.224 0-.676-.732-1.225-1.633-1.225-.902 0-1.633-.549-1.633-1.226 0-.676.73-1.223 1.633-1.223a1.758 1.758 0 011.47.692M9.5 11.95v.816m0-6.532v.817M7.809.754l.604 3.125m2.11-.013l.569-3.13M1.081 6.591l3.008 1.04m1.044-1.834L2.706 3.739m.064 11.598l2.404-2.085M4.11 11.43l-2.996 1.073m10.077 5.743l-.604-3.125m-2.11.013l-.569 3.13m10.012-5.855l-3.009-1.04m-1.044 1.834l2.427 2.058M16.23 3.663l-2.404 2.085m1.066 1.822l2.995-1.073"></path></g><defs><clipPath id="clip0"><path fill="#fff" d="M0 0h19v19H0z"></path></clipPath></defs></svg>