<svg viewBox="0 0 6 6" xmlns="http://www.w3.org/2000/svg" height="24"><path fill-rule="evenodd" clip-rule="evenodd" d="M1.693 4.551c.05.001.148.052.203.072a2.42 2.42 0 001.4.07c.12-.03.407-.142.43-.142l.296.55H1.397l.296-.55zm3.726.693v.026c-.005.076-.055.149-.138.149H.138c-.08 0-.132-.072-.138-.147v-.033c.006-.07.055-.136.158-.138h.869l.391-.72a1.518 1.518 0 01-.272-.203l-.143-.132a2.294 2.294 0 01-.33-.423C.416 3.188.329 2.829.329 2.307c0-.468.182-.945.434-1.301a2.404 2.404 0 011.15-.873A2.28 2.28 0 012.635 0c.47 0 .694.053 1.083.22a2.428 2.428 0 011.055.967c.064.111.14.27.184.396.17.486.184 1.043.021 1.533-.066.2-.139.35-.237.514-.15.25-.48.614-.74.752l.098.187.293.532c.217 0 .682-.01.88 0a.146.146 0 01.147.143zm-1.916-2.44c0-.116.061-.256.14-.336.366-.365.983.052.77.527a.475.475 0 01-.864.007.627.627 0 01-.046-.197zm-2.54 0a.475.475 0 11.813.336.482.482 0 01-.673.001.522.522 0 01-.14-.336zm1.27-.423a.475.475 0 01.907-.198c.133.283-.07.505-.07.505 0 .047.293.545.342.642.052.104.565 1.006.578 1.062-.068.018-.205.132-.275.138l-.692-1.256c-.029-.058-.218-.38-.229-.427-.173.025-.083.002-.17 0-.01.043-.083.157-.109.208-.039.077-.078.136-.116.212-.108.213-.301.527-.402.73l-.293.533c-.083-.02-.229-.125-.275-.138.01-.043.084-.157.11-.208.038-.077.077-.136.116-.212.037-.074.079-.137.116-.211.06-.119.579-1.034.579-1.062 0-.021-.117-.137-.117-.318zm1.058-.74c0-.18.111-.352.279-.431.39-.184.809.225.632.621a.47.47 0 01-.236.24.482.482 0 01-.535-.094.523.523 0 01-.14-.337zm-1.852.423c-.05 0-.094.002-.135-.045-.09-.103-.016-.213.044-.333.072-.144.161-.269.274-.382.082-.082.11-.13.22-.13.073 0 .137.067.137.17 0 .113-.212.174-.388.554-.025.054-.05.166-.152.166zm.794-.953c0-.492.686-.666.907-.198a.482.482 0 01-.094.535c-.298.298-.813.079-.813-.337z" fill="#170047"></path><path fill-rule="evenodd" clip-rule="evenodd" d="M2.55 1.09c0 .266.318.203.318.042 0-.265-.317-.202-.317-.042zm1.059.53c0 .265.318.202.318.042 0-.266-.318-.203-.318-.043zm-1.059.74c0 .266.318.203.318.042 0-.265-.317-.202-.317-.042zm-1.27.424c0 .265.318.202.318.042 0-.266-.317-.203-.317-.042zm2.54 0c0 .265.318.202.318.042 0-.266-.317-.203-.317-.042z" fill="#170047"></path></svg>