<svg viewBox="0 0 36 36" xmlns="http://www.w3.org/2000/svg" height="36"><circle cx="18" cy="18" r="18" fill="#F5C638" fill-opacity=".24"></circle><path d="M23.654 12.502H12.346a.893.893 0 00-.885.899v6.901c0 .496.397.9.885.9h11.308a.893.893 0 00.885-.9v-6.901c0-.496-.397-.9-.885-.9z" fill="#FFF3CE"></path><path d="M25.06 10H10.94C9.87 10 9 10.884 9 11.972v9.76c0 1.087.87 1.971 1.94 1.971h4.838v1.225h-2.862a.532.532 0 00-.527.536c0 .296.236.536.527.536h10.168c.29 0 .527-.24.527-.536a.532.532 0 00-.527-.536h-2.862v-1.225h4.839c1.069 0 1.939-.884 1.939-1.971v-9.76C27 10.884 26.13 10 25.06 10zm.534 10.303c0 1.087-.87 1.97-1.94 1.97H12.346c-1.07 0-1.94-.883-1.94-1.97V13.4c0-1.087.87-1.972 1.94-1.972h11.308c1.07 0 1.94.885 1.94 1.972v6.902z" fill="#FFF3CE"></path></svg>