<svg viewBox="0 0 19 18" xmlns="http://www.w3.org/2000/svg" height="24"><g clip-path="url(#btn-top-h2222)" fill="#422E6B"><path d="M17.656 7.708a.88.88 0 01-.875-.885V4.981h-2.522l-.017.907a4.915 4.915 0 01-.042.576 6.615 6.615 0 01-1.862 3.776 6.538 6.538 0 01-2.47 1.573 6.252 6.252 0 01-2.084.348h-.092a6.527 6.527 0 01-4.648-1.92 6.622 6.622 0 01-1.598-2.615 6.586 6.586 0 01-.312-1.901L1.12 4.98H0v.565C0 7.62.8 9.572 2.252 11.04a7.6 7.6 0 004.807 2.25c-.372 2.034-2.141 3.58-4.261 3.58h-.463V18h10.827v-1.13h-.578c-2.12 0-3.89-1.546-4.262-3.58a7.6 7.6 0 004.807-2.25 7.747 7.747 0 002.232-4.93h.3v.713c0 1.113.894 2.015 1.995 2.015H19v-1.13h-1.344z"></path><path d="M9.955 4.473a23.427 23.427 0 010 2.145 12.27 12.27 0 001.893-.357c.765-.216 1.143-.448 1.285-.597a.17.17 0 000-.236c-.142-.149-.52-.381-1.285-.598a12.265 12.265 0 00-1.893-.357zm-6.421.357c-.766.217-1.144.45-1.285.598a.17.17 0 00-.048.117v.001a.17.17 0 00.048.118c.141.149.52.38 1.285.597.548.155 1.19.276 1.893.357a23.426 23.426 0 010-2.145c-.703.082-1.345.202-1.893.357zM7.69 7.858c-.358 0-.713-.009-1.061-.025.08.71.2 1.358.354 1.912.214.774.444 1.155.59 1.299.032.03.074.048.117.048h.001a.167.167 0 00.117-.048c.147-.144.377-.525.59-1.299a12.62 12.62 0 00.355-1.912c-.349.016-.703.025-1.062.025zM3.074 3.78a14.45 14.45 0 012.434-.44c.09-.91.237-1.748.434-2.458.068-.244.139-.463.211-.66A5.54 5.54 0 002.42 3.993c.195-.074.412-.145.654-.214zM7.69 7.196c.903 0 1.634-.739 1.634-1.65 0-.911-.731-1.65-1.633-1.65s-1.633.739-1.633 1.65c0 .911.73 1.65 1.633 1.65zM9.873 3.34c.902.092 1.731.24 2.434.44.242.068.459.14.654.213A5.54 5.54 0 009.228.222c.073.196.143.416.211.66.197.71.344 1.548.434 2.459zm-3.931 6.87a14.874 14.874 0 01-.434-2.46 14.452 14.452 0 01-2.434-.438 7.998 7.998 0 01-.653-.213 5.54 5.54 0 003.733 3.771 8.218 8.218 0 01-.212-.66zm6.365-2.898c-.703.2-1.532.347-2.434.439-.09.91-.237 1.749-.434 2.459a8.24 8.24 0 01-.211.66 5.54 5.54 0 003.733-3.772 7.994 7.994 0 01-.654.214zM7.69 3.234c.36 0 .714.008 1.062.024-.08-.709-.2-1.358-.353-1.912C8.185.573 7.955.191 7.808.048A.167.167 0 007.69 0a.167.167 0 00-.117.048c-.147.143-.377.525-.591 1.298a12.622 12.622 0 00-.354 1.912c.348-.016.703-.024 1.062-.024z"></path></g><defs><clipPath id="btn-top-h2222"><path fill="#fff" d="M0 0h19v18H0z"></path></clipPath></defs></svg>