<svg viewBox="0 0 19 19" xmlns="http://www.w3.org/2000/svg" height="17px"><g stroke="#9DA8B2" stroke-width="1.2" stroke-linecap="round" stroke-linejoin="round"><path d="M9.904 1.552A1.182 1.182 0 008.518.616L1.551 1.968a1.188 1.188 0 00-.935 1.387l2.029 10.45a1.183 1.183 0 001.386.936l.653-.127"></path><path d="M6.616 5.412l-1.291 2.66.596.539M2.76 3.54a.296.296 0 01.348.238m-.583.11a.296.296 0 01.238-.348m.11.583a.297.297 0 01-.348-.237m.583-.111a.297.297 0 01-.237.348m14.897 1.512l-7.722-1.56a.792.792 0 00-.933.62L6.851 15.893a.792.792 0 00.619.932l7.721 1.56a.792.792 0 00.933-.619l2.263-11.199a.791.791 0 00-.62-.933zm-5.616 7.917l.234-1.16"></path><path d="M13.207 8.335s-1.974.808-2.209 1.967a1.777 1.777 0 001.388 2.09 1.775 1.775 0 002.091-1.387c.234-1.16-1.27-2.67-1.27-2.67zM10.95 6.067a.297.297 0 01.232.35M10.6 6.3a.297.297 0 01.35-.233m-.118.583a.297.297 0 01-.232-.35m.581.117a.297.297 0 01-.35.232m3.577 9.168a.297.297 0 01.232.35"></path><path d="M14.06 16.049a.297.297 0 01.127-.189c.066-.043.146-.059.223-.043m-.118.582a.297.297 0 01-.232-.35m.586.118a.297.297 0 01-.127.188.294.294 0 01-.223.044"></path></g><defs><clipPath id="clip0"><path fill="#fff" d="M0 0h19v19H0z"></path></clipPath></defs></svg>