<svg viewBox="0 0 19 19" xmlns="http://www.w3.org/2000/svg" height="17px"><path d="M6.642 12.337a.464.464 0 00-.705.396v2.633a.465.465 0 00.705.396l5.717-3.43a.464.464 0 01.704.396v2.633a.465.465 0 01-.704.396l-5.717-3.42zm-4.861 5.871a7.69 7.69 0 012.15-5.343m11.139 0a7.69 7.69 0 012.149 5.343m0 0a7.69 7.69 0 00-2.15-5.343m-11.139 0a7.69 7.69 0 00-2.149 5.343M13.656 5.937A4.16 4.16 0 018.132 3.99a4.164 4.164 0 01-2.788 2.77" stroke="#9DA8B2" stroke-width="1.2" stroke-linecap="round" stroke-linejoin="round"></path><path d="M12.409 10.49a4.141 4.141 0 001.247-2.97V5.147a4.156 4.156 0 10-8.312 0V7.52a4.142 4.142 0 001.246 2.97" stroke="#9DA8B2" stroke-width="1.2" stroke-linecap="round" stroke-linejoin="round"></path></svg>