<svg width="64" height="64" viewBox="0 0 64 64" fill="none" xmlns="http://www.w3.org/2000/svg">
    <path d="M55.1397 33.53C54.8597 35.3 54.6497 37.04 54.2897 38.75C53.3697 43.18 51.6397 47.28 48.9797 50.96C45.5797 55.67 41.1697 59.08 35.7597 61.18C32.8797 62.3 29.9097 62.92 26.7997 63.12C21.7597 63.44 16.9897 62.49 12.3997 60.46C11.9197 60.25 11.4297 60.04 10.9497 59.85C10.4997 59.67 10.3397 59.38 10.5597 58.89C12.5797 54.28 14.4697 49.59 17.3997 45.43C19.6797 42.18 22.5997 39.63 26.0897 37.7C30.0197 35.54 34.2497 34.45 38.6397 33.75C43.0697 33.04 47.5097 33.31 51.9597 33.26C52.9297 33.25 53.9197 33.42 55.1397 33.53Z" fill="#CCCCCC"/>
    <path d="M10.3604 4.47998C12.2504 3.71998 13.9904 2.91998 15.8004 2.30998C18.9204 1.26998 22.1704 0.749984 25.4504 0.829984C31.9104 0.959984 37.8204 2.86998 43.0004 6.74998C49.0604 11.3 52.5104 17.55 54.2904 24.79C54.6904 26.46 54.9304 28.18 55.2304 29.87C55.3204 30.37 55.1204 30.63 54.5704 30.64C50.7204 30.7 46.8504 30.96 43.0004 30.79C37.8104 30.56 32.7404 29.53 27.9904 27.29C23.9204 25.36 20.4904 22.61 17.8204 18.94C15.0704 15.14 13.1604 10.94 11.3904 6.63998C11.1104 5.97998 10.7704 5.34998 10.3604 4.47998Z" fill="#CCCCCC"/>
</svg>
