<svg width="300" height="300" viewBox="0 0 300 300" fill="none" xmlns="http://www.w3.org/2000/svg">
<rect width="300" height="300" rx="100" fill="url(#paint0_linear_1_112)"/>
<path d="M53.72 230.824C52.6 227.884 51.69 224.174 50.99 219.694C50.29 215.214 49.87 210.594 49.73 205.834C49.73 200.934 49.87 196.244 50.15 191.764C50.57 187.284 51.27 183.574 52.25 180.634C54.49 179.794 56.66 178.394 58.76 176.434C60.86 174.334 62.61 171.044 64.01 166.564C65.41 161.944 66.11 155.504 66.11 147.244C66.11 138.284 65.27 131.564 63.59 127.084C62.05 122.464 60.16 119.384 57.92 117.844C55.82 116.164 53.93 115.324 52.25 115.324C50.99 112.804 50.08 109.374 49.52 105.034C48.96 100.694 48.68 96.0743 48.68 91.1743C48.82 86.1343 49.24 81.3043 49.94 76.6843C50.64 71.9243 51.69 67.8643 53.09 64.5043C55.33 64.6443 58.97 64.8543 64.01 65.1343C69.19 65.2743 75.14 65.4843 81.86 65.7643C88.72 65.9043 95.86 66.0443 103.28 66.1843C110.7 66.3243 117.98 66.4643 125.12 66.6043C132.4 66.6043 138.91 66.6043 144.65 66.6043C159.35 66.6043 175.66 66.3943 193.58 65.9743C211.64 65.5543 229.56 64.9943 247.34 64.2943C248.04 66.9543 248.67 70.8043 249.23 75.8443C249.79 80.8843 250.21 86.4843 250.49 92.6443C250.77 98.8043 250.91 105.034 250.91 111.334C250.91 117.634 250.7 123.444 250.28 128.764C249.86 133.944 249.23 138.004 248.39 140.944C241.81 141.784 234.53 142.344 226.55 142.624C218.57 142.904 210.45 142.904 202.19 142.624C194.07 142.344 186.37 141.784 179.09 140.944C177.41 134.364 177.41 127.854 179.09 121.414H154.73V130.234H174.26V159.424H154.52V168.454H179.09C177.41 161.874 177.41 155.294 179.09 148.714C190.85 148.014 202.89 147.664 215.21 147.664C227.53 147.664 239.01 148.014 249.65 148.714C250.07 151.234 250.42 155.294 250.7 160.894C250.98 166.354 251.12 172.584 251.12 179.584C251.12 186.444 250.98 193.374 250.7 200.374C250.56 207.374 250.28 213.604 249.86 219.064C249.44 224.524 248.88 228.444 248.18 230.824C233.48 230.544 217.52 229.914 200.3 228.934C183.08 228.094 166.21 227.674 149.69 227.674C140.73 227.674 131.28 227.744 121.34 227.884C111.54 228.164 102.02 228.444 92.78 228.724C83.68 229.144 75.63 229.494 68.63 229.774C61.77 230.194 56.8 230.544 53.72 230.824Z" fill="#940F00"/>
<path d="M57.4 246.654C56.3333 243.854 55.4667 240.321 54.8 236.054C54.1333 231.788 53.7333 227.388 53.6 222.854C53.6 218.188 53.7333 213.721 54 209.454C54.4 205.188 55.0667 201.654 56 198.854C58.1333 198.054 60.2 196.721 62.2 194.854C64.2 192.854 65.8667 189.721 67.2 185.454C68.5333 181.054 69.2 174.921 69.2 167.054C69.2 158.521 68.4 152.121 66.8 147.854C65.3333 143.454 63.5333 140.521 61.4 139.054C59.4 137.454 57.6 136.654 56 136.654C54.8 134.254 53.9333 130.988 53.4 126.854C52.8667 122.721 52.6 118.321 52.6 113.654C52.7333 108.854 53.1333 104.254 53.8 99.8543C54.4667 95.321 55.4667 91.4543 56.8 88.2543C58.9333 88.3877 62.4 88.5877 67.2 88.8543C72.1333 88.9877 77.8 89.1877 84.2 89.4543C90.7333 89.5877 97.5333 89.721 104.6 89.8543C111.667 89.9877 118.6 90.121 125.4 90.2543C132.333 90.2543 138.533 90.2543 144 90.2543C158 90.2543 173.533 90.0543 190.6 89.6543C207.8 89.2543 224.867 88.721 241.8 88.0543C242.467 90.5877 243.067 94.2543 243.6 99.0543C244.133 103.854 244.533 109.188 244.8 115.054C245.067 120.921 245.2 126.854 245.2 132.854C245.2 138.854 245 144.388 244.6 149.454C244.2 154.388 243.6 158.254 242.8 161.054C236.533 161.854 229.6 162.388 222 162.654C214.4 162.921 206.667 162.921 198.8 162.654C191.067 162.388 183.733 161.854 176.8 161.054C175.2 154.788 175.2 148.588 176.8 142.454H153.6V150.854H172.2V178.654H153.4V187.254H176.8C175.2 180.988 175.2 174.721 176.8 168.454C188 167.788 199.467 167.454 211.2 167.454C222.933 167.454 233.867 167.788 244 168.454C244.4 170.854 244.733 174.721 245 180.054C245.267 185.254 245.4 191.188 245.4 197.854C245.4 204.388 245.267 210.988 245 217.654C244.867 224.321 244.6 230.254 244.2 235.454C243.8 240.654 243.267 244.388 242.6 246.654C228.6 246.388 213.4 245.788 197 244.854C180.6 244.054 164.533 243.654 148.8 243.654C140.267 243.654 131.267 243.721 121.8 243.854C112.467 244.121 103.4 244.388 94.6 244.654C85.9333 245.054 78.2667 245.388 71.6 245.654C65.0667 246.054 60.3333 246.388 57.4 246.654Z" fill="white"/>
<defs>
<linearGradient id="paint0_linear_1_112" x1="150" y1="0" x2="150" y2="300" gradientUnits="userSpaceOnUse">
<stop stop-color="#FD6302"/>
<stop offset="1" stop-color="#FE1203"/>
</linearGradient>
</defs>
</svg>