<svg width="64" height="64" viewBox="0 0 64 64" fill="none" xmlns="http://www.w3.org/2000/svg">
<g clip-path="url(#clip0_2159_6)">
<path d="M52.8341 32.7805H39.8038L23.3445 13.1122V32.7805H11V0H24.0303L40.4896 19.6683V0H52.8341V32.7805Z" fill="url(#paint0_linear_2159_6)"/>
<path d="M52.8341 64C42.5389 64 32.563 64 23.7464 64C19.338 64 14.1713 64 11 64C11 61.9155 11 56.7321 11 51.968V28.6331C11 23.5286 12.0571 19.8339 14.1713 17.5491C16.3305 15.2156 18.6085 14.0488 23.3317 14.0488L23.4195 28.7019V49.4705C23.4195 50.5885 23.4195 50.5757 23.4195 51.3561C23.4195 51.9715 23.4195 52.2877 23.4195 53.1166C23.4195 53.1166 37.3805 53.1166 40.6888 53.1166V46.8462H33.8781V38.8559H52.8341V64Z" fill="url(#paint1_linear_2159_6)"/>
</g>
<defs>
<linearGradient id="paint0_linear_2159_6" x1="31.9171" y1="14.0488" x2="31.9171" y2="64" gradientUnits="userSpaceOnUse">
<stop stop-color="#FFF170"/>
<stop offset="1" stop-color="#FFCF52"/>
</linearGradient>
<linearGradient id="paint1_linear_2159_6" x1="31.9171" y1="14.0488" x2="31.9171" y2="64" gradientUnits="userSpaceOnUse">
<stop stop-color="#FFF170"/>
<stop offset="1" stop-color="#FFCF52"/>
</linearGradient>
<clipPath id="clip0_2159_6">
<rect width="41.8341" height="64" fill="white" transform="translate(11)"/>
</clipPath>
</defs>
</svg>
