<svg width="64" height="46" viewBox="0 0 64 46" fill="none" xmlns="http://www.w3.org/2000/svg">
    <path d="M18.2731 46C13.9505 45.9209 10.6449 45.5649 7.49572 44.2398C1.02157 41.5105 -1.44299 36.0322 0.825925 29.3476C2.41026 24.6603 5.32457 20.8235 8.92358 17.58C11.6815 15.1078 14.7523 12.9719 17.7254 10.7569C18.2926 10.3416 18.5469 9.9855 18.5273 9.25377C18.4686 7.45408 18.5273 5.63456 18.5078 3.83475C18.4883 2.41083 18.8403 1.14507 20.1704 0.393515C21.4613 -0.338214 22.6545 0.0375627 23.828 0.808829C25.4905 1.89662 27.2118 2.88551 28.8548 4.01273C29.6763 4.5863 30.4 4.66538 31.3585 4.32925C36.796 2.48991 42.3704 1.44177 48.1209 1.65928C50.8397 1.75818 53.4998 2.1735 56.0426 3.16239C62.9276 5.79271 65.5877 11.6072 63.0645 18.5887C61.4606 23.0187 58.6832 26.638 55.3385 29.8024C46.4193 38.2275 35.8571 43.33 23.828 45.3672C21.696 45.7627 19.5053 45.8616 18.2731 46ZM18.5665 22.5045C18.4686 22.4848 18.3709 22.465 18.2926 22.4254C16.2389 25.0756 14.4589 27.8445 13.9505 31.2659C13.3245 35.518 15.4564 38.5439 19.6618 39.0582C21.5982 39.2955 23.652 39.3153 25.5688 38.9395C34.3707 37.2386 41.5686 32.7096 47.3778 25.8865C49.4706 23.4143 51.1136 20.6653 51.8177 17.4416C52.7762 13.1103 50.8202 9.86689 46.4976 9.09551C44.7176 8.7791 42.8203 8.95707 40.9817 9.05597C39.8668 9.11533 38.7519 9.51083 37.3632 9.80753C37.9305 10.1635 38.2043 10.3416 38.4781 10.4997C41.3339 12.1611 44.1895 13.7828 47.0061 15.4836C47.5928 15.8397 48.1406 16.3934 48.4535 17.0065C49.1968 18.4503 48.61 19.9731 47.0647 20.9223C41.901 24.1065 36.7178 27.2709 31.554 30.4551C28.7766 32.1559 25.9991 33.8765 23.2021 35.5576C21.0114 36.8827 18.762 35.6763 18.5665 33.1052C18.5078 32.413 18.5273 31.7208 18.5273 31.0285C18.5665 28.2202 18.5665 25.3723 18.5665 22.5045ZM24.493 5.5752C22.8695 5.55537 22.0481 6.56409 22.0481 8.26488C22.0676 14.7914 22.1067 21.3378 22.1459 27.8642C22.1654 29.9606 23.7693 30.8506 25.5492 29.7629C30.8303 26.5193 36.1115 23.2759 41.3924 20.0325C43.1137 18.9644 43.1529 17.2042 41.4512 16.1165C36.17 12.7544 30.8694 9.39221 25.5883 6.04987C25.1776 5.81253 24.6887 5.6741 24.493 5.5752ZM37.7935 37.2585C37.6761 37.1991 37.6371 37.1596 37.6174 37.1596C37.2459 37.298 36.8938 37.4364 36.5222 37.5749C30.6152 39.9482 24.5713 41.4117 18.1557 40.6602C15.7303 40.3635 13.4419 39.691 11.4467 38.2275C9.35393 36.7244 8.25853 34.628 7.96513 32.0372C7.76959 32.591 7.63266 33.1249 7.55442 33.659C6.79161 38.3264 9.04099 41.9655 13.5396 43.3103C15.926 44.0222 18.3709 44.0222 20.7962 43.7256C26.4685 43.0136 31.6322 40.8381 36.5417 38.01C36.972 37.7924 37.3632 37.5353 37.7935 37.2585ZM56.9032 12.873C57.3531 8.70002 54.8691 5.33786 50.6246 4.25007C46.5758 3.22164 42.6051 3.81504 38.6933 4.94237C36.9329 5.45647 35.2312 6.12895 33.3927 6.76178C34.8988 7.96829 34.8988 7.96829 36.5417 7.61223C39.6321 6.92004 42.7812 6.56409 45.9499 6.82114C50.3899 7.19692 54.4974 8.30442 56.9032 12.873Z" fill="#011D52"/>
</svg>
