<?xml version="1.0" encoding="utf-8"?>
<!-- Generator: Adobe Illustrator 25.2.1, SVG Export Plug-In . SVG Version: 6.00 Build 0)  -->
<svg version="1.1" id="Layer_1" xmlns="http://www.w3.org/2000/svg" xmlns:xlink="http://www.w3.org/1999/xlink" x="0px" y="0px"
	 viewBox="0 0 64 64" style="enable-background:new 0 0 64 64;" xml:space="preserve">
<style type="text/css">
	.st0{fill:#F19123;}
	.st1{fill:#FFFFFF;}
</style>
<path class="st0" d="M36.18,25.1c-6.77,0.42-3.73,9.23,3.75,8.77C47.25,33.41,43.39,24.65,36.18,25.1z"/>
<path class="st0" d="M33.32,19.66c-12.04,0-21.8,9.76-21.8,21.8s9.76,21.8,21.8,21.8s21.8-9.76,21.8-21.8c0,0,0,0,0,0
	C55.12,29.42,45.36,19.66,33.32,19.66z M33.32,60.97c-10.78,0-19.51-8.73-19.52-19.51c0-10.78,8.73-19.51,19.51-19.52
	c10.78,0,19.51,8.73,19.52,19.51c0,0,0,0,0,0C52.83,52.24,44.1,60.97,33.32,60.97z M32.66,4.44c-5.18,3.91-4.28,9.91-4.28,9.91
	S25.14,5.9,20.91,0.74c-0.57,6.65,1.51,15.45,1.51,15.45s-2.65-5.46-9.13-5.76c5.38,3.09,7.46,8.66,7.94,10.15
	c3.2-1.98,6.87-3.09,10.63-3.22C31.44,15.97,29.94,10.11,32.66,4.44z"/>
<path class="st1" d="M18.54,43.59v4.56h-1.9V36.4h4c1.35,0,2.37,0.32,3.06,0.97c0.68,0.64,1.03,1.53,1.03,2.65
	c0,1.11-0.35,1.99-1.05,2.62c-0.7,0.64-1.71,0.96-3.03,0.96H18.54z"/>
<path  d="M22.79,40.02c0-0.67-0.19-1.17-0.56-1.52s-0.97-0.52-1.79-0.52h-1.9v4.08h1.9C22,42.05,22.79,41.37,22.79,40.02
	L22.79,40.02z"/>
<polygon class="st1" points="27.98,46.68 32.04,46.68 32.04,48.16 26.08,48.16 26.08,36.4 27.98,36.4 "/>
<polygon class="st1" points="40.73,45.61 35.77,45.61 34.87,48.16 32.84,48.16 37.17,36.59 39.35,36.59 43.67,48.16 41.63,48.16 "/>
<polygon  points="40.2,44.15 38.25,38.65 36.3,44.15 "/>
<polygon class="st1" points="51.29,36.4 47.37,43.88 47.37,48.16 45.46,48.16 45.46,43.88 41.53,36.4 43.73,36.4 46.43,41.85 
	49.13,36.4 "/>
</svg>
