<svg width="23" height="22" viewBox="0 0 23 22" fill="none" xmlns="http://www.w3.org/2000/svg">
<path fill-rule="evenodd" clip-rule="evenodd" d="M11.5007 0C5.66139 0 0.927734 4.73366 0.927734 10.5729C0.927734 16.4122 5.66139 21.1458 11.5007 21.1458C17.3399 21.1458 22.0736 16.4122 22.0736 10.5729C22.0736 4.73366 17.3399 0 11.5007 0ZM15.9066 6.93818C16.3918 7.07134 16.774 7.46369 16.9037 7.96194C17.1394 8.86497 17.1394 10.7491 17.1394 10.7491C17.1394 10.7491 17.1394 12.6332 16.9037 13.5363C16.774 14.0346 16.3918 14.4269 15.9066 14.5601C15.0272 14.8021 11.5005 14.8021 11.5005 14.8021C11.5005 14.8021 7.97381 14.8021 7.09434 14.5601C6.60907 14.4269 6.22691 14.0346 6.09722 13.5363C5.8616 12.6332 5.8616 10.7491 5.8616 10.7491C5.8616 10.7491 5.8616 8.86497 6.09722 7.96194C6.22691 7.46369 6.60907 7.07134 7.09434 6.93818C7.97381 6.69618 11.5005 6.69618 11.5005 6.69618C11.5005 6.69618 15.0272 6.69618 15.9066 6.93818Z" fill="white"/>
<path fill-rule="evenodd" clip-rule="evenodd" d="M10.4434 12.6875V9.16321L13.2628 10.9254L10.4434 12.6875Z" fill="white"/>
</svg>
