<svg width="22" height="22" viewBox="0 0 22 22" fill="none" xmlns="http://www.w3.org/2000/svg">
<path fill-rule="evenodd" clip-rule="evenodd" d="M11.4264 21.1458C17.2657 21.1458 21.9993 16.4122 21.9993 10.5729C21.9993 4.73366 17.2657 0 11.4264 0C5.58717 0 0.853516 4.73366 0.853516 10.5729C0.853516 16.4122 5.58717 21.1458 11.4264 21.1458ZM9.48823 15.4188C9.74537 15.4188 9.86289 15.3044 10.0049 15.1661L10.0169 15.1544L11.2867 13.9197L13.9288 15.8717C14.415 16.14 14.7659 16.0011 14.887 15.4203L16.6214 7.2472C16.799 6.53527 16.3501 6.21237 15.8849 6.42355L5.70055 10.3506C5.00537 10.6294 5.00942 11.0173 5.57383 11.1901L8.18737 12.0058L14.238 8.18855C14.5236 8.01534 14.7858 8.10846 14.5706 8.29942L9.6683 12.7234L9.66814 12.7233L9.66813 12.7235L9.6679 12.7237L9.6681 12.7239L9.48823 15.4188Z" fill="white"/>
</svg>
