<svg width="22" height="22" viewBox="0 0 22 22" fill="none" xmlns="http://www.w3.org/2000/svg">
<path fill-rule="evenodd" clip-rule="evenodd" d="M11.1911 0C5.35182 0 0.618164 4.73366 0.618164 10.5729C0.618164 16.4122 5.35182 21.1458 11.1911 21.1458C17.0303 21.1458 21.764 16.4122 21.764 10.5729C21.764 4.73366 17.0303 0 11.1911 0ZM8.86637 4.9681C9.46786 4.94072 9.66006 4.93403 11.1915 4.93403H11.1897C12.7217 4.93403 12.9131 4.94072 13.5146 4.9681C14.1149 4.99559 14.5249 5.09063 14.8844 5.23007C15.2557 5.37398 15.5693 5.56665 15.883 5.88031C16.1967 6.19374 16.3893 6.50835 16.5338 6.87923C16.6724 7.23777 16.7676 7.64754 16.7958 8.24785C16.8228 8.84934 16.8299 9.04153 16.8299 10.573C16.8299 12.1044 16.8228 12.2961 16.7958 12.8976C16.7676 13.4977 16.6724 13.9076 16.5338 14.2662C16.3893 14.637 16.1967 14.9516 15.883 15.265C15.5697 15.5787 15.2555 15.7718 14.8848 15.9159C14.526 16.0553 14.1158 16.1504 13.5155 16.1779C12.914 16.2052 12.7224 16.2119 11.1908 16.2119C9.65947 16.2119 9.46739 16.2052 8.8659 16.1779C8.26571 16.1504 7.85583 16.0553 7.49705 15.9159C7.12641 15.7718 6.8118 15.5787 6.49849 15.265C6.18494 14.9516 5.99227 14.637 5.84813 14.2661C5.7088 13.9076 5.61376 13.4978 5.58615 12.8975C5.5589 12.296 5.55208 12.1044 5.55208 10.573C5.55208 9.04153 5.55913 8.84922 5.58603 8.24773C5.61305 7.64765 5.70821 7.23777 5.84801 6.87911C5.99251 6.50835 6.18517 6.19374 6.49884 5.88031C6.81227 5.56676 7.12688 5.3741 7.49776 5.23007C7.8563 5.09063 8.26606 4.99559 8.86637 4.9681Z" fill="white"/>
<path fill-rule="evenodd" clip-rule="evenodd" d="M10.6857 5.95026C10.784 5.95011 10.8896 5.95016 11.0037 5.95021L11.1916 5.95026C12.6972 5.95026 12.8757 5.95567 13.4702 5.98269C14.02 6.00783 14.3184 6.09969 14.5172 6.17688C14.7803 6.27908 14.9679 6.40126 15.1652 6.59862C15.3626 6.79599 15.4847 6.98395 15.5872 7.2471C15.6644 7.44564 15.7563 7.74404 15.7814 8.29383C15.8084 8.88827 15.8143 9.06684 15.8143 10.5717C15.8143 12.0766 15.8084 12.2552 15.7814 12.8496C15.7562 13.3994 15.6644 13.6978 15.5872 13.8964C15.485 14.1595 15.3626 14.3469 15.1652 14.5441C14.9678 14.7415 14.7804 14.8637 14.5172 14.9659C14.3186 15.0434 14.02 15.1351 13.4702 15.1602C12.8758 15.1872 12.6972 15.1931 11.1916 15.1931C9.68589 15.1931 9.50744 15.1872 8.91301 15.1602C8.36321 15.1348 8.06481 15.0429 7.86592 14.9658C7.60277 14.8636 7.41481 14.7414 7.21744 14.544C7.02008 14.3467 6.8979 14.1592 6.79546 13.8959C6.71828 13.6974 6.62629 13.399 6.60127 12.8492C6.57425 12.2547 6.56885 12.0762 6.56885 10.5703C6.56885 9.06449 6.57425 8.88686 6.60127 8.29242C6.62641 7.74263 6.71828 7.44423 6.79546 7.24546C6.89767 6.98231 7.02008 6.79434 7.21744 6.59698C7.41481 6.39962 7.60277 6.27744 7.86592 6.175C8.0647 6.09746 8.36321 6.00583 8.91301 5.98057C9.4332 5.95708 9.63479 5.95003 10.6857 5.94885V5.95026ZM14.2015 6.88669C13.8279 6.88669 13.5248 7.18943 13.5248 7.56313C13.5248 7.93671 13.8279 8.2398 14.2015 8.2398C14.575 8.2398 14.8781 7.93671 14.8781 7.56313C14.8781 7.18955 14.575 6.88646 14.2015 6.88646V6.88669ZM8.29581 10.5732C8.29581 8.974 9.59235 7.67742 11.1915 7.67736C12.7908 7.67736 14.087 8.97397 14.087 10.5732C14.087 12.1724 12.7909 13.4684 11.1916 13.4684C9.59242 13.4684 8.29581 12.1724 8.29581 10.5732Z" fill="white"/>
<path fill-rule="evenodd" clip-rule="evenodd" d="M11.1917 8.69324C12.2297 8.69324 13.0713 9.53473 13.0713 10.5729C13.0713 11.6109 12.2297 12.4525 11.1917 12.4525C10.1535 12.4525 9.31201 11.6109 9.31201 10.5729C9.31201 9.53473 10.1535 8.69324 11.1917 8.69324V8.69324Z" fill="white"/>
</svg>
