<?xml version="1.0" encoding="utf-8"?>
<!-- Generator: Adobe Illustrator 25.2.1, SVG Export Plug-In . SVG Version: 6.00 Build 0)  -->
<svg version="1.1" id="Layer_1" xmlns="http://www.w3.org/2000/svg" xmlns:xlink="http://www.w3.org/1999/xlink" x="0px" y="0px"
	 viewBox="0 0 64 64" style="enable-background:new 0 0 64 64;" xml:space="preserve">
<style type="text/css">
	.st0{fill:#A38F45;}
	.st1{fill:#FCFBF8;}
	.st2{fill:#FCFDFA;}
	.st3{fill:#FCFAF6;}
	.st4{fill:#A5934D;}
	.st5{fill:#A4914C;}
	.st6{fill:#A4914A;}
	.st7{fill:#A6924C;}
</style>
<path class="st0" d="M62.47,32.1c0.02,16.7-13.51,30.15-30.32,30.17c-16.66,0-30.25-13.51-30.28-30.12
	c0-16.81,13.51-30.43,30.25-30.43C49.03,1.73,62.47,15.14,62.47,32.1z M10.42,19.51c-0.04,0.53-0.07,0.83-0.07,1.14
	c0,7.24,0.02,14.47-0.02,21.71c0,0.96,0.33,1.46,1.14,1.92c5.23,2.99,10.45,6.03,15.69,9.03c1.31,0.76,2.65,1.49,4.18,2.36
	c0-0.68,0-1.07,0-1.44c0-7.06-0.04-14.14,0.02-21.2c0-1.11-0.37-1.71-1.31-2.25c-4.18-2.38-8.35-4.83-12.53-7.24
	C15.21,22.2,12.91,20.91,10.42,19.51z M11.52,17.67c0.15,0.18,0.2,0.31,0.31,0.37c6.56,3.8,13.12,7.59,19.72,11.34
	c0.39,0.22,1.11,0.17,1.51-0.07c5.46-3.06,10.87-6.16,16.29-9.27c1.2-0.68,2.38-1.42,3.8-2.27c-0.76-0.33-1.22-0.53-1.68-0.74
	c-6.05-2.53-12.09-5.03-18.12-7.59c-0.85-0.35-1.49-0.35-2.3,0c-4.04,1.71-8.11,3.37-12.16,5.07C16.43,15.53,14.01,16.6,11.52,17.67
	z M33.18,55.56c0.44-0.2,0.66-0.29,0.88-0.41c6.41-3.7,12.85-7.39,19.24-11.15c0.42-0.24,0.76-1.01,0.76-1.55
	c0.06-7.24,0.04-14.49,0.04-21.71c0-0.33-0.04-0.66-0.06-1c-0.17,0-0.26-0.04-0.33,0c-6.65,3.8-13.33,7.59-19.96,11.43
	c-0.29,0.17-0.55,0.66-0.55,1.01C33.18,39.93,33.18,47.64,33.18,55.56z"/>
<path class="st1" d="M10.42,19.51c2.49,1.4,4.81,2.69,7.1,4.02c4.18,2.41,8.33,4.87,12.53,7.24c0.92,0.53,1.31,1.14,1.31,2.25
	c-0.06,7.06-0.02,14.14-0.02,21.2c0,0.39,0,0.76,0,1.44c-1.53-0.87-2.86-1.6-4.18-2.36c-5.23-3-10.43-6.05-15.69-9.03
	c-0.81-0.46-1.14-0.96-1.14-1.92c0.04-7.24,0.02-14.47,0.02-21.71C10.34,20.34,10.38,20.05,10.42,19.51z M17.59,41.78
	c-0.24-1.57-0.81-3.13-2.32-4.13c-0.44-0.29-1.27-0.52-1.62-0.31c-0.44,0.28-0.87,1.07-0.83,1.59c0.13,1.77,0.88,3.34,2.41,4.35
	C16.46,44.08,17.57,43.4,17.59,41.78z M27.74,36.29c0.02-2.12-1.18-4.17-2.62-4.88c-1.11-0.55-1.99-0.06-2.05,1.16
	c-0.09,1.9,0.72,3.43,2.23,4.53c0.42,0.31,1.22,0.52,1.62,0.33C27.39,37.21,27.61,36.47,27.74,36.29z M22.84,38.94
	c-0.22-1.71-1.35-3.72-2.64-4.46c-1.23-0.7-2.32-0.13-2.27,1.27c0.06,1.79,0.72,3.37,2.3,4.37c0.44,0.28,1.22,0.48,1.62,0.28
	C22.32,40.17,22.53,39.44,22.84,38.94z"/>
<path class="st2" d="M11.52,17.67c2.49-1.07,4.92-2.14,7.35-3.15c4.05-1.7,8.11-3.35,12.16-5.07c0.81-0.35,1.47-0.35,2.3,0
	c6.03,2.56,12.07,5.07,18.12,7.59c0.46,0.2,0.92,0.41,1.68,0.74c-1.42,0.85-2.6,1.57-3.8,2.27c-5.42,3.1-10.84,6.21-16.29,9.27
	c-0.41,0.22-1.14,0.28-1.51,0.07c-6.6-3.74-13.14-7.54-19.72-11.34C11.73,17.98,11.67,17.85,11.52,17.67z M31.96,20.12
	c1.33-0.37,2.49-0.55,3.54-1c1.33-0.57,1.44-1.77,0.41-2.64c-1.7-1.4-5.73-1.38-7.41,0.02c-0.94,0.77-1.01,1.7,0.04,2.3
	C29.6,19.42,30.88,19.72,31.96,20.12z"/>
<path class="st3" d="M33.18,55.56c0-7.93,0-15.65,0.02-23.35c0-0.35,0.26-0.85,0.55-1.01c6.64-3.83,13.31-7.63,19.96-11.43
	c0.06-0.04,0.17,0,0.33,0c0.02,0.33,0.06,0.66,0.06,1c0,7.24,0.02,14.49-0.04,21.71c0,0.53-0.33,1.29-0.76,1.55
	c-6.4,3.76-12.81,7.45-19.24,11.15C33.86,55.29,33.62,55.38,33.18,55.56z M46.56,36.36c-0.55-0.85-0.83-1.79-1.4-2.03
	c-0.52-0.22-1.47,0.18-2.01,0.59c-1.12,0.88-1.7,2.19-1.6,3.61c0.04,0.59,0.44,1.42,0.92,1.64c0.48,0.22,1.49,0.04,1.82-0.35
	C45.14,38.87,45.75,37.65,46.56,36.36z M51.06,27.42c0.02-1.86-0.92-2.64-2.23-2.08c-1.6,0.68-2.82,3.39-2.25,5.01
	c0.37,1.05,1.14,1.38,2.12,0.85C50.27,30.33,50.89,28.88,51.06,27.42z M51.11,39.86c-0.26-0.41-0.52-1.2-1.03-1.49
	c-0.41-0.24-1.31-0.04-1.75,0.28c-1.44,1.07-2.1,2.58-1.88,4.37c0.15,1.27,1.09,1.75,2.23,1.16C50.28,43.34,50.76,41.81,51.11,39.86
	z M41.03,44.97c-0.18-0.28-0.44-1.16-0.98-1.42c-0.5-0.22-1.42,0.11-1.94,0.48c-1.29,0.94-1.79,2.4-1.71,3.94
	c0.06,1.51,1.27,2.08,2.54,1.25C40.28,48.34,40.88,47.03,41.03,44.97z M36.2,34.68c0.42,0.63,0.72,1.57,1.29,1.77
	c0.53,0.18,1.49-0.24,2.01-0.66c1.11-0.92,1.62-2.25,1.51-3.67c-0.04-0.55-0.44-1.33-0.88-1.53c-0.46-0.2-1.29-0.02-1.75,0.29
	C37.14,31.7,36.59,32.99,36.2,34.68z"/>
<path class="st4" d="M17.48,40.13c0.42,1.7-0.01,3.09-0.77,3.39c-0.55,0.21-1.28-0.1-1.48-0.23c-1.55-1.01-2.29-2.56-2.41-4.35
	c-0.04-0.53,0.37-1.33,0.83-1.59c0.53-0.3,1.18,0.08,1.62,0.31C16.49,38.32,17.15,39.42,17.48,40.13z"/>
<path class="st5" d="M27.25,33.22c0.2,0.33,0.55,0.98,0.58,1.85c0.01,0.21,0.05,1.95-0.92,2.36c-0.57,0.24-1.23-0.05-1.62-0.33
	c-1.51-1.09-2.32-2.62-2.23-4.53c0.03-0.6,0.25-1.02,0.59-1.23c0.47-0.29,1.06-0.08,1.45,0.07C26.23,31.81,26.91,32.67,27.25,33.22z
	"/>
<path class="st5" d="M22.47,36.76c0.54,1.81,0.16,3.31-0.6,3.63c-0.58,0.25-1.41-0.14-1.62-0.28c-1.59-1-2.25-2.56-2.3-4.37
	c-0.03-0.65,0.19-1.12,0.55-1.37c0.55-0.38,1.33-0.06,1.72,0.1C21.52,35.01,22.2,36.2,22.47,36.76z"/>
<path class="st6" d="M32.97,19.86c-0.81,0.08-1.47,0.02-1.94-0.06c-1.49-0.24-2.31-0.84-2.51-0.99c-0.38-0.29-0.69-0.53-0.75-0.93
	c-0.07-0.45,0.19-0.93,0.72-1.37c1.7-1.4,5.71-1.42,7.41-0.02c0.53,0.43,0.76,0.95,0.69,1.43c-0.08,0.57-0.63,0.92-1.09,1.2
	C35.06,19.39,34.22,19.82,32.97,19.86z"/>
<path class="st7" d="M46.53,37.2c-0.08,0.35-0.24,0.87-0.57,1.43c-0.25,0.41-0.57,0.95-1.21,1.33c-0.18,0.11-1.34,0.79-2.28,0.25
	c-0.71-0.41-0.9-1.27-0.92-1.64c-0.09-1.44,0.48-2.73,1.6-3.61c0.39-0.3,1.15-0.82,2.01-0.59c0.63,0.17,0.97,0.66,1.08,0.82
	C46.84,36.06,46.57,37.05,46.53,37.2z"/>
<path class="st4" d="M51.06,27.42c-0.17,1.46-0.79,2.91-2.36,3.78c-0.96,0.53-1.75,0.18-2.12-0.85c-0.57-1.62,0.65-4.33,2.25-5.01
	C50.14,24.78,51.08,25.56,51.06,27.42z"/>
<path class="st7" d="M50.98,40.46c-0.08,0.46-0.55,2.97-2.3,3.73c-0.28,0.12-0.96,0.41-1.51,0.1c-0.38-0.21-0.64-0.64-0.72-1.26
	c-0.22-1.79,0.44-3.32,1.88-4.37c0.33-0.24,1.08-0.59,1.75-0.28C50.72,38.68,51.09,39.52,50.98,40.46z"/>
<path class="st5" d="M40.94,45.82c-0.09,0.68-0.33,1.66-1.03,2.55c-0.44,0.57-0.84,0.78-0.98,0.87c-1.25,0.83-2.47,0.26-2.54-1.25
	c-0.06-1.57,0.42-3,1.71-3.94c0.3-0.22,1.19-0.79,1.94-0.48C40.7,43.85,41.11,44.78,40.94,45.82z"/>
<path class="st6" d="M36.25,33.65c0.06-0.38,0.22-0.98,0.64-1.58c0.22-0.31,0.66-0.92,1.5-1.2c0.67-0.22,1.24-0.11,1.36-0.09
	c0.17,0.04,1.12,0.26,1.62,1.12c0.65,1.14-0.04,2.42-0.21,2.74c-0.13,0.24-0.49,0.9-1.29,1.33c-0.31,0.17-1.03,0.56-1.91,0.33
	c-0.95-0.24-1.39-1.01-1.45-1.12C36.14,34.51,36.22,33.85,36.25,33.65z"/>
</svg>
