<svg width="62" height="64" viewBox="0 0 62 64" fill="none" xmlns="http://www.w3.org/2000/svg">
    <path d="M34.4305 24.02C39.0405 18.08 43.5705 12.63 46.5805 6.08997C47.7005 3.65997 49.0605 1.55997 52.2605 1.53997C55.7005 1.51997 57.8005 2.77997 58.9505 5.99997C59.9405 8.74997 58.9205 12.07 56.0905 13.49C52.8705 15.11 50.1305 17.42 47.0305 19.17C44.5505 20.56 42.7105 22.62 40.8805 24.66C39.2005 26.54 39.3105 27.56 41.3705 29.06C45.0805 31.78 49.3505 33.38 53.7005 34.71C54.9505 35.08 56.2405 35.28 57.3705 35.96C59.8905 37.48 61.6905 39.49 61.1605 42.71C60.6105 46.04 58.6805 48.39 55.4805 49.39C52.6505 50.26 49.9605 49.73 47.9105 47.43C47.0505 46.48 46.1305 45.37 45.7905 44.18C44.2805 38.74 39.8005 35.89 36.1305 32.32C33.2205 33.23 31.9205 35.64 30.5605 37.73C27.1905 42.89 24.2605 48.3 22.1105 54.12C19.8105 60.32 14.6005 63.98 9.26046 63.33C5.69046 62.89 3.37046 60.79 2.00046 57.55C0.710458 54.43 1.72046 51.84 3.86046 49.52C5.75046 47.48 7.81046 45.68 10.4605 44.62C17.7605 41.71 23.2005 36.35 28.4605 30.78C30.3905 28.74 30.1605 28.06 27.8005 26.15C22.6205 21.94 16.6005 19.68 10.1105 18.56C7.04046 18.04 4.66046 16.59 2.65046 14.34C0.610458 12.09 0.170458 9.54997 1.57046 6.74997C4.76046 0.289974 12.1905 -1.34003 16.9905 3.08997C18.9005 4.84997 20.5805 6.77997 22.0105 9.00997C25.3805 14.32 28.9905 19.53 34.4305 24.02Z" fill="#CCCCCC"/>
</svg>
